<svg width="32" height="33" viewBox="0 0 32 33" fill="none" xmlns="http://www.w3.org/2000/svg">
<g clip-path="url(#clip0)">
<path d="M19.2039 31.5162L14.4933 32.788L15.2553 31.4939C15.4264 31.2076 15.6719 30.9695 15.9676 30.8031C16.2633 30.6368 16.5988 30.548 16.941 30.5457C17.2768 30.5479 17.6065 30.6323 17.8993 30.7911L19.2039 31.5162Z" fill="#FFA36F"/>
<path d="M22.6792 13.1196L20.7972 16.3437L24.5034 16.645L22.6792 13.1196ZM20.474 16.8904L17.2296 22.4685L19.0885 26.0385L24.1686 17.1916L20.474 16.8904ZM19.7928 16.8346L19.1693 16.7342L13.7659 26.1277L18.5343 26.5293L16.4676 22.5131L19.7928 16.8346ZM8.50114 17.2697L10.2792 20.7058L12.0457 17.5598L8.50114 17.2697ZM13.8814 7.74233L8.78978 16.5222L12.4728 16.8235L15.6941 11.2454L13.8814 7.74233ZM14.1931 7.13989L16.3753 11.3235L13.1425 16.9016L13.8237 16.9685L19.1924 7.57498L14.1931 7.13989Z" fill="#FFA36F"/>
<path d="M31.2576 9.78398L27.1242 1.38337C26.92 0.970384 26.5993 0.621479 26.1989 0.376764C25.7986 0.132048 25.335 0.00145542 24.8613 0L24.5957 0L14.9898 0.970588C14.5886 1.01506 14.2045 1.15303 13.8707 1.37262C13.5368 1.59221 13.2632 1.88686 13.0732 2.23124L0.823297 23.2607C0.655982 23.5411 0.548289 23.851 0.506532 24.1722C0.464774 24.4933 0.489793 24.8194 0.58012 25.1311C0.670447 25.4428 0.824266 25.7339 1.03256 25.9875C1.24085 26.241 1.49943 26.4518 1.79313 26.6075L13.7082 33.0335L14.7473 31.2596C14.9697 30.8874 15.2894 30.5781 15.6744 30.3627C16.0594 30.1474 16.4961 30.0335 16.941 30.0325C17.3827 30.0312 17.8168 30.1428 18.1995 30.356L19.9775 31.3489L31.1652 12.0598C31.3746 11.7176 31.4926 11.3304 31.5088 10.9332C31.5249 10.5359 31.4386 10.141 31.2576 9.78398ZM7.66985 17.1917L13.8699 6.51521L20.1853 7.0284L13.9853 17.7049L12.7268 17.5933L10.1637 22.0558L7.66985 17.1917ZM18.973 27.3327L12.6576 26.7748L18.8576 16.0984L20.116 16.2434L22.6676 11.8479L25.173 16.6227L18.973 27.3327ZM25.1961 3.90467C25.0884 3.99758 24.9625 4.06878 24.8259 4.11411C24.6894 4.15943 24.5448 4.17796 24.4007 4.1686C24.2566 4.15925 24.1159 4.12221 23.9868 4.05965C23.8578 3.99709 23.7429 3.91026 23.649 3.80426C23.4458 3.58365 23.3414 3.29418 23.3587 2.9993C23.376 2.70443 23.5136 2.42822 23.7414 2.23124C23.946 2.06735 24.2029 1.97672 24.4687 1.97465C24.627 1.97514 24.7836 2.00708 24.9286 2.0685C25.0735 2.12991 25.2039 2.21948 25.3116 2.33164C25.5014 2.55316 25.5954 2.83697 25.5739 3.12383C25.5524 3.41069 25.417 3.67844 25.1961 3.8712V3.90467Z" fill="#FFA36F"/>
</g>
<defs>
<clipPath id="clip0">
<rect width="31" height="33" fill="white" transform="translate(0.5)"/>
</clipPath>
</defs>
</svg>
