<svg width="46" height="32" viewBox="0 0 46 32" fill="none" xmlns="http://www.w3.org/2000/svg">
<g clip-path="url(#clip0)">
<path d="M43.9147 12H4.05814C3.92601 12 3.79929 11.9473 3.70586 11.8536C3.61243 11.7598 3.55994 11.6326 3.55994 11.5C3.55994 5.159 10.0366 0 18.0079 0H29.9649C37.9362 0 44.4129 5.159 44.4129 11.5C44.4129 11.6326 44.3604 11.7598 44.267 11.8536C44.1735 11.9473 44.0468 12 43.9147 12ZM4.5713 11H43.4015C43.0657 5.441 37.168 1 29.9649 1H18.0079C10.8049 1 4.90709 5.441 4.5713 11Z" fill="black"/>
<path d="M40.4273 17H7.54564C6.75284 17 5.99252 16.6839 5.43192 16.1213C4.87133 15.5587 4.5564 14.7956 4.5564 14C4.5564 13.2044 4.87133 12.4413 5.43192 11.8787C5.99252 11.3161 6.75284 11 7.54564 11H40.4273C41.2201 11 41.9804 11.3161 42.541 11.8787C43.1016 12.4413 43.4165 13.2044 43.4165 14C43.4165 14.7956 43.1016 15.5587 42.541 16.1213C41.9804 16.6839 41.2201 17 40.4273 17ZM7.54564 12C7.01711 12 6.51022 12.2107 6.13649 12.5858C5.76277 12.9609 5.55281 13.4696 5.55281 14C5.55281 14.5304 5.76277 15.0391 6.13649 15.4142C6.51022 15.7893 7.01711 16 7.54564 16H40.4273C40.9558 16 41.4627 15.7893 41.8364 15.4142C42.2101 15.0391 42.4201 14.5304 42.4201 14C42.4201 13.4696 42.2101 12.9609 41.8364 12.5858C41.4627 12.2107 40.9558 12 40.4273 12H7.54564Z" fill="black"/>
<path d="M40.4273 25H7.54564C6.75284 25 5.99252 24.6839 5.43192 24.1213C4.87133 23.5587 4.5564 22.7956 4.5564 22C4.5564 21.2044 4.87133 20.4413 5.43192 19.8787C5.99252 19.3161 6.75284 19 7.54564 19H40.4273C41.2201 19 41.9804 19.3161 42.541 19.8787C43.1016 20.4413 43.4165 21.2044 43.4165 22C43.4165 22.7956 43.1016 23.5587 42.541 24.1213C41.9804 24.6839 41.2201 25 40.4273 25ZM7.54564 20C7.01711 20 6.51022 20.2107 6.13649 20.5858C5.76277 20.9609 5.55281 21.4696 5.55281 22C5.55281 22.5304 5.76277 23.0391 6.13649 23.4142C6.51022 23.7893 7.01711 24 7.54564 24H40.4273C40.9558 24 41.4627 23.7893 41.8364 23.4142C42.2101 23.0391 42.4201 22.5304 42.4201 22C42.4201 21.4696 42.2101 20.9609 41.8364 20.5858C41.4627 20.2107 40.9558 20 40.4273 20H7.54564Z" fill="black"/>
<path d="M41.4374 22.5C40.7399 22.5 40.1351 21.77 39.4336 20.924C39.0958 20.518 38.4771 19.771 38.216 19.712L38.206 19.723C37.4538 20.63 35.6363 21.6 34.1297 21.6C33.4043 21.6 32.8264 21.365 32.4587 20.922C31.8609 20.205 30.3214 19.403 29.1477 19.403C28.7212 19.403 28.4173 19.51 28.2419 19.721C27.6809 20.4 26.6068 20.8 25.3683 20.8C24.1297 20.8 23.0556 20.4 22.4946 19.719C22.0681 19.205 21.7872 19.275 20.3473 20.25C19.9956 20.488 19.596 20.759 19.1516 21.029C17.9809 21.735 16.6138 21.405 15.2915 21.086C14.1128 20.802 12.9998 20.534 12.1768 21.029C11.0229 21.729 10.1221 21.412 9.25128 21.11C8.39636 20.81 7.51255 20.51 6.12753 21.064C4.58808 21.683 4.04005 21.491 3.56675 20.92C3.45216 20.782 3.43423 20.769 3.35451 20.758C3.20107 20.738 2.86527 20.774 2.14188 21.064C1.86091 21.1864 1.56663 21.2753 1.26504 21.329C0.693096 21.407 0.499789 21.088 0.44399 20.947C0.350327 20.711 0.154036 20.222 2.18373 18.655C3.34654 17.755 4.68273 16.964 5.75686 16.532L5.84654 16.496H24.326H42.8055C44.2822 16.496 45.3862 17.615 45.3862 18.615C45.389 18.7961 45.3504 18.9755 45.2734 19.1393C45.1964 19.3031 45.0829 19.447 44.9418 19.56C44.6618 19.785 44.2782 19.899 43.8019 19.899C42.9799 19.899 42.9569 20.017 42.8453 20.588C42.7646 21 42.654 21.564 42.1917 22.121C42.1031 22.2377 41.9891 22.3326 41.8583 22.3982C41.7276 22.4639 41.5836 22.4987 41.4374 22.5ZM38.1951 18.708C38.8926 18.708 39.4974 19.439 40.1989 20.284C40.5367 20.691 41.1554 21.437 41.4165 21.497L41.4264 21.486C41.7254 21.125 41.7941 20.772 41.8669 20.399C42.0273 19.581 42.2844 18.899 43.8019 18.899C44.0361 18.899 44.2244 18.855 44.319 18.779C44.3435 18.7598 44.3628 18.7347 44.3752 18.706C44.3876 18.6774 44.3926 18.6461 44.3898 18.615C44.3898 18.215 43.7919 17.496 42.8055 17.496H6.03785C4.57811 18.102 3.00278 19.22 2.10601 20.008C3.39238 19.549 3.89357 19.753 4.33 20.28C4.44459 20.418 4.46252 20.432 4.54224 20.442C4.69668 20.463 5.03147 20.427 5.75487 20.136C7.48464 19.441 8.64447 19.842 9.57512 20.165C10.3722 20.443 10.9063 20.627 11.6626 20.171C12.8334 19.471 14.2005 19.795 15.5227 20.114C16.7015 20.398 17.8145 20.667 18.6375 20.171C19.063 19.915 19.4506 19.652 19.7923 19.421C21.0289 18.584 22.1957 17.794 23.2618 19.079C23.6255 19.517 24.4526 19.8 25.3703 19.8C26.288 19.8 27.115 19.517 27.4787 19.079C27.8424 18.641 28.4243 18.401 29.1497 18.401C30.6562 18.401 32.4737 19.373 33.226 20.28C33.4013 20.491 33.7052 20.598 34.1317 20.598C35.3055 20.598 36.8479 19.798 37.4428 19.079C37.532 18.964 37.6461 18.8709 37.7764 18.8066C37.9067 18.7423 38.0499 18.7086 38.1951 18.708Z" fill="black"/>
<path d="M39.0512 32H8.92164C7.50011 31.9984 6.13726 31.431 5.13209 30.4222C4.12692 29.4134 3.56152 28.0456 3.55994 26.619V24.5C3.55994 24.3674 3.61243 24.2402 3.70586 24.1464C3.79929 24.0527 3.92601 24 4.05814 24H43.9147C44.0468 24 44.1735 24.0527 44.267 24.1464C44.3604 24.2402 44.4129 24.3674 44.4129 24.5V26.619C44.4113 28.0456 43.8459 29.4134 42.8407 30.4222C41.8356 31.431 40.4727 31.9984 39.0512 32ZM4.55635 25V26.619C4.55767 27.7805 5.018 28.8941 5.83637 29.7154C6.65473 30.5367 7.76429 30.9987 8.92164 31H39.0512C40.2085 30.9987 41.3181 30.5367 42.1364 29.7154C42.9548 28.8941 43.4151 27.7805 43.4165 26.619V25H4.55635Z" fill="black"/>
<path d="M32.0943 16.344L31.605 15.854C29.2675 13.505 13.0688 12.275 7.02454 12L7.04745 11H39.9291V12C37.1112 12 33.6218 13.279 32.4032 15.724L32.0943 16.344ZM19.5425 12C26.0889 12.746 30.1254 13.651 31.8153 14.753C32.4909 13.729 33.6517 12.715 35.2031 12H19.5425Z" fill="black"/>
<path d="M16.2413 3.05861L15.7957 3.953L19.3604 5.74216L19.8061 4.84777L16.2413 3.05861Z" fill="black"/>
<path d="M29.1965 7.27056L28.7509 8.16495L32.3156 9.95411L32.7613 9.05972L29.1965 7.27056Z" fill="black"/>
<path d="M39.1181 6.03358L35.1356 6.19341L35.1754 7.19262L39.1579 7.03279L39.1181 6.03358Z" fill="black"/>
<path d="M31.8006 2.76622L28.0194 4.03081L28.3344 4.97952L32.1156 3.71493L31.8006 2.76622Z" fill="black"/>
<path d="M23.6233 6.15043L20.8873 9.05912L21.6119 9.74557L24.3479 6.83688L23.6233 6.15043Z" fill="black"/>
<path d="M14.0223 8H10.0366V9H14.0223V8Z" fill="black"/>
</g>
<defs>
<clipPath id="clip0">
<rect width="45" height="32" fill="white" transform="translate(0.5)"/>
</clipPath>
</defs>
</svg>
