<svg width="75" height="80" viewBox="0 0 75 80" fill="none" xmlns="http://www.w3.org/2000/svg">
<path d="M37.4997 78.7097C22.2614 78.7097 13.8325 77.4632 8.34514 74.3796C4.31182 72.1159 1.80005 68.7048 1.80005 65.4896V22.8106C1.80005 18.0206 5.33663 12.5425 10.9895 8.53987C15.6843 5.22632 24.1123 1.29032 37.4997 1.29032C60.804 1.29032 73.2001 13.7889 73.2001 22.8106V65.4555C73.2001 68.7034 70.6877 72.1151 66.6215 74.3787C61.1678 77.4632 52.7388 78.7097 37.4997 78.7097Z" fill="#F5EBDC"/>
<path d="M64.7456 71.0088C59.4291 73.9871 50.3077 74.8387 37.6909 74.8387C25.0742 74.8387 15.9527 73.9871 10.6369 71.0088C7.44495 69.225 5.83032 66.7933 5.83032 65.0496C5.83032 64.0573 6.36242 63.4888 7.54713 63.4888H67.8334C69.0191 63.4888 69.5512 64.057 69.5512 65.0496C69.5519 66.7933 67.9364 69.2248 64.7462 71.0088H64.7456ZM67.8337 24.7995H7.54726C6.36164 24.7995 5.83045 24.1917 5.83045 23.0978C5.83045 16.6116 15.6664 5.16129 37.6909 5.16129C59.5119 5.16129 69.5521 16.6116 69.5521 23.0978C69.5521 24.1917 69.0201 24.7995 67.8337 24.7995Z" fill="#FF8732"/>
<path d="M18.6717 51.5525C18.4876 51.2692 18.4681 51.0865 18.4681 51.0059C18.4681 50.783 18.5906 50.6213 18.8355 50.3982C19.4081 49.8702 20.82 48.5533 21.5967 47.3578C22.1895 46.4459 22.4345 45.6151 22.4345 44.9268C22.4345 43.1635 20.8198 41.7844 19.06 41.7844C17.9352 41.7844 16.8721 42.413 16.1568 43.5681C15.1957 45.108 14.05 46.8917 13.3146 47.6017C13.1303 47.7845 13.0283 47.8248 12.8855 47.8248C12.6397 47.8248 12.5377 47.6622 12.5377 47.3991V45.3729C12.5377 43.387 11.352 41.7852 9.20453 41.7852C7.03687 41.7852 5.87062 43.3862 5.87062 45.3729V57.8576C5.87062 59.8434 7.03596 61.4459 9.20453 61.4459C11.352 61.4459 12.5377 59.8449 12.5377 57.8576V54.9806C12.5377 54.7368 12.6397 54.5548 12.8855 54.5548C13.2132 54.5548 13.2949 54.8795 13.377 55.0413C13.8472 56.1561 15.2161 58.5267 16.4852 59.9257C17.3438 60.8579 18.4071 61.4462 19.532 61.4462C21.4337 61.4462 23.0296 59.8041 23.0296 58.0405C23.0296 56.9465 22.5585 56.1357 21.6591 55.1635C20.5134 53.9248 19.1631 52.303 18.6717 51.5534V51.5525ZM44.1742 40.6286C47.3846 40.6286 49.4095 38.6018 49.4095 35.6428C49.4095 33.7584 48.2629 32.4609 45.9736 32.4609H45.3199C44.1125 32.4609 43.1718 33.0292 43.1718 34.3058C43.1718 35.4408 44.1741 35.9881 44.9307 35.9881C45.3192 35.9881 45.5656 36.1097 45.5656 36.3938C45.5656 36.7577 45.1366 37.0015 44.6451 37.0015C43.1108 37.0015 42.0681 35.9268 42.0681 33.9203C42.0681 31.6914 43.5003 30.8815 44.604 30.8815C45.9534 30.8815 46.1787 31.5706 47.1196 31.5706C48.2036 31.5706 48.9401 30.6787 48.9401 29.7466C48.9401 29.0575 48.6328 28.5311 48.1626 28.1657C47.3038 27.537 46.0977 27.0717 44.2982 27.0717C41.1275 27.0717 38.0402 29.1388 38.0402 33.9218C38.0386 38.5004 41.1268 40.6286 44.1742 40.6286ZM8.22184 40.5071H11.1063C13.8262 40.5071 15.4822 38.7034 15.4822 36.4534C15.4822 34.6495 14.398 33.8188 14.1531 33.616C14.0517 33.5347 13.9495 33.4542 13.9495 33.3729C13.9495 33.2723 14.0103 33.2312 14.1133 33.1097C14.501 32.6637 14.8895 31.9546 14.8895 30.9203C14.8895 28.4893 13.2328 27.191 10.6563 27.191H8.22262C6.60722 27.191 5.83032 28.1246 5.83032 29.3804V38.3177C5.83032 39.575 6.60722 40.5071 8.22184 40.5071ZM9.4293 30.6779C9.4293 30.4147 9.59324 30.2111 9.94021 30.2111H10.2062C11.0853 30.2111 11.352 30.8188 11.352 31.3468C11.352 31.833 11.0867 32.5221 10.2062 32.5221H9.94099C9.59311 32.5221 9.42917 32.32 9.42917 32.056L9.4293 30.6779ZM9.4293 35.4206C9.4293 35.1574 9.59324 34.9538 9.94021 34.9538H10.3085C11.2905 34.9538 11.576 35.6018 11.576 36.1902C11.576 36.7182 11.2898 37.4676 10.3085 37.4676H9.94112C9.59324 37.4676 9.4293 37.2648 9.4293 37.0008V35.4206ZM61.6178 40.6077C62.9264 40.6077 63.6418 39.6346 63.6418 38.4191V36.2707C63.6418 36.0074 63.7649 35.8859 63.9695 35.8859C64.2145 35.8859 64.2956 36.0276 64.336 36.2707C64.5209 37.3043 65.0114 38.7025 65.563 39.4124C66.2589 40.3252 66.9124 40.6094 67.5676 40.6094C68.63 40.6094 69.5513 39.7778 69.5513 38.7435C69.5513 38.0545 69.265 37.5474 68.8967 37.0821C68.201 36.2111 67.7722 35.6439 67.507 34.9345C67.4453 34.7719 67.486 34.6294 67.6708 34.4884C68.305 34.0022 69.0413 32.9276 69.0413 31.2259C69.0413 28.6517 66.8933 27.1924 64.2957 27.1924H61.9858C60.3703 27.1924 59.5937 28.1237 59.5937 29.381V38.4205C59.5937 39.636 60.3089 40.6076 61.6186 40.6076L61.6178 40.6077ZM63.4172 31.0232C63.4172 30.76 63.581 30.5556 63.9282 30.5556H64.2143C65.0739 30.5556 65.3391 31.1641 65.3391 31.6914C65.3391 32.1985 65.0739 32.8666 64.2143 32.8666H63.9282C63.5802 32.8666 63.4172 32.6653 63.4172 32.4005V31.0224V31.0232ZM27.9975 41.7837C25.7074 41.7837 24.4593 43.4854 24.4593 45.6137V57.6129C24.4593 59.7419 25.7074 61.4436 27.9975 61.4436C30.2875 61.4436 31.5349 59.7413 31.5349 57.6129V45.6137C31.5349 43.4868 30.2884 41.7837 27.9975 41.7837ZM64.3571 49.5868H63.3554C61.556 49.5868 60.1653 50.4175 60.1653 52.2408C60.1653 53.903 61.6786 54.6934 62.8032 54.6934C63.3554 54.6934 63.7439 54.856 63.7439 55.281C63.7439 55.8075 63.0894 56.152 62.3944 56.152C60.0833 56.152 58.5084 54.5912 58.5084 51.6926C58.5084 48.4705 60.6559 47.2952 62.3118 47.2952C64.3367 47.2952 64.6635 48.3094 66.0744 48.3094C67.71 48.3094 68.8145 46.9916 68.8145 45.6539C68.8145 44.6614 68.3645 43.8908 67.6491 43.3639C66.4011 42.4511 64.5207 41.7819 61.8614 41.7819C57.0971 41.7819 52.4545 44.761 52.4545 51.6926C52.4545 58.3196 57.0955 61.4212 61.6773 61.4212C66.4822 61.4212 69.5295 58.4825 69.5295 54.1855C69.5308 51.4712 67.8141 49.5868 64.3571 49.5868ZM56.6271 40.5071C57.7738 40.5071 58.6731 39.8382 58.6731 38.6221C58.6731 37.4258 57.773 36.757 56.6279 36.757H54.7872C54.4401 36.757 54.2762 36.555 54.2762 36.291V35.9054C54.2762 35.6422 54.4401 35.4394 54.788 35.4394H56.199C57.1812 35.4394 57.9581 34.8517 57.9581 33.8174C57.9581 32.7846 57.1811 32.1963 56.199 32.1963H54.7875C54.4402 32.1963 54.2764 31.9934 54.2764 31.7294V31.405C54.2764 31.1418 54.4402 30.939 54.7883 30.939H56.6282C57.7734 30.939 58.6734 30.2701 58.6734 29.0546C58.6734 27.8577 57.7732 27.1888 56.6282 27.1888H52.7633C51.1488 27.1888 50.371 28.1209 50.371 29.3782V38.3156C50.371 39.572 51.1481 40.5049 52.7633 40.5049H56.6282V40.5074H56.6273L56.6271 40.5071ZM21.4946 40.6077C24.8073 40.6077 26.5662 38.6413 26.5662 36.1701V29.3394C26.5662 28.1239 25.8509 27.1499 24.5414 27.1499C23.2326 27.1499 22.5173 28.1239 22.5173 29.3394V35.9463C22.5173 36.4317 22.231 36.9992 21.4947 36.9992C20.7583 36.9992 20.5119 36.4317 20.5119 35.9463V29.3394C20.5119 28.1239 19.7763 27.1499 18.4668 27.1499C17.1581 27.1499 16.4427 28.1239 16.4427 29.3394V36.1693C16.4436 38.6422 18.1822 40.6071 21.4948 40.6071L21.4946 40.6077ZM35.8507 40.6077C36.9141 40.6077 37.8352 39.777 37.8352 38.7427C37.8352 38.0537 37.5489 37.5466 37.1808 37.0813C36.5879 36.311 36.056 35.6421 35.7908 34.9337C35.7292 34.7711 35.7698 34.6286 35.9547 34.487C36.5889 34.0015 37.3252 32.927 37.3252 31.2245C37.3252 28.6503 35.177 27.191 32.5796 27.191H30.2676C28.653 27.191 27.8753 28.1231 27.8753 29.3804V38.4199C27.8753 39.6354 28.5915 40.6094 29.9002 40.6094C31.2091 40.6094 31.9252 39.6354 31.9252 38.4199V36.2723C31.9252 36.009 32.0475 35.8867 32.252 35.8867C32.4977 35.8867 32.5788 36.0284 32.6194 36.2723C32.8036 37.305 33.2939 38.7032 33.8463 39.4139C34.5418 40.3244 35.1955 40.6077 35.8507 40.6077ZM32.4966 32.8658H32.2096C31.8617 32.8658 31.6987 32.6637 31.6987 32.3997V31.0224C31.6987 30.7592 31.8625 30.5556 32.2096 30.5556H32.4959C33.3554 30.5556 33.6206 31.1641 33.6206 31.6914C33.6206 32.1969 33.3554 32.8658 32.4959 32.8658H32.4966ZM47.6086 41.7837C45.5027 41.7837 44.3575 43.3437 44.3575 45.3102V49.6875C44.3575 50.0514 44.2343 50.2147 44.0096 50.2147C43.8458 50.2147 43.7234 50.1141 43.5806 49.8299L40.7383 44.3587C39.654 42.2707 38.5293 41.7846 37.2415 41.7846C35.0941 41.7846 33.9077 43.3849 33.9077 45.3924V57.9181C33.9077 59.8844 35.0527 61.4447 37.1588 61.4447C39.2656 61.4447 40.4099 59.8837 40.4099 57.9181V53.5406C40.4099 53.1769 40.5331 53.0126 40.7579 53.0126C40.9217 53.0126 41.0449 53.1141 41.1869 53.3982L44.0291 58.8702C45.1134 60.9582 46.2788 61.4444 47.5267 61.4444C49.6742 61.4444 50.8606 59.8432 50.8606 57.8366V45.311C50.8606 43.3445 49.7153 41.7845 47.6086 41.7845V41.7837Z" fill="#D62300"/>
</svg>
