<svg width="68" height="53" viewBox="0 0 68 53" fill="none" xmlns="http://www.w3.org/2000/svg">
<g clip-path="url(#clip0)">
<path d="M67.2281 46.6562H0.842285V11.9288C0.843206 11.1254 1.18788 10.3552 1.80068 9.78708C2.41348 9.21901 3.24435 8.89949 4.11098 8.89863H14.2926C15.521 8.90431 16.7265 8.59003 17.7716 7.99161C18.8168 7.3932 19.6596 6.53469 20.2041 5.5139C20.9354 4.14655 22.0649 2.9962 23.4648 2.19296C24.8647 1.38971 26.4791 0.965632 28.1255 0.968677H39.9484C41.5957 0.96338 43.2117 1.3861 44.6131 2.18891C46.0144 2.99171 47.145 4.14247 47.8767 5.51067C48.4222 6.53075 49.2653 7.38863 50.3102 7.98692C51.3551 8.58521 52.5601 8.89995 53.7882 8.89541H63.9733C64.84 8.89626 65.6708 9.21578 66.2836 9.78386C66.8964 10.3519 67.2411 11.1222 67.242 11.9256L67.2281 46.6562ZM3.10603 44.5609H64.9644V11.9288C64.9644 11.6814 64.8586 11.4441 64.6702 11.2689C64.4819 11.0937 64.2263 10.9948 63.9594 10.9939H53.7743C52.1268 10.9982 50.5109 10.5747 49.1097 9.77137C47.7084 8.96806 46.5779 7.81706 45.846 6.44873C45.3007 5.42877 44.4576 4.57114 43.4125 3.97335C42.3675 3.37557 41.1625 3.06162 39.9345 3.06721H28.1116C26.8873 3.06599 25.6871 3.38195 24.6462 3.97945C23.6054 4.57695 22.7654 5.43221 22.221 6.44873C21.4892 7.81693 20.3586 8.96769 18.9573 9.77049C17.5559 10.5733 15.94 10.996 14.2926 10.9907H4.11098C3.97842 10.9907 3.84717 11.015 3.72479 11.0622C3.60241 11.1095 3.49131 11.1787 3.3979 11.2659C3.30449 11.3531 3.23062 11.4565 3.18052 11.5703C3.13043 11.6841 3.10511 11.8059 3.10603 11.9288V44.5609Z" fill="#0D0628"/>
<path d="M34.0336 40.712C30.8508 40.712 27.7395 39.8371 25.0931 38.198C22.4466 36.5589 20.3839 34.2291 19.1658 31.5033C17.9476 28.7774 17.6287 25.7779 18.2494 22.8841C18.8701 19.9903 20.4025 17.332 22.6528 15.2455C24.9031 13.1589 27.7703 11.7378 30.8918 11.1618C34.0133 10.5858 37.249 10.8808 40.1897 12.0095C43.1304 13.1381 45.6441 15.0498 47.4128 17.5027C49.1816 19.9556 50.126 22.8397 50.1267 25.7902C50.123 29.7461 48.4264 33.539 45.4093 36.3366C42.3921 39.1342 38.3009 40.7078 34.0336 40.712ZM34.0336 12.9733C31.2974 12.9733 28.6227 13.7255 26.3477 15.1349C24.0728 16.5442 22.2998 18.5473 21.253 20.8908C20.2062 23.2344 19.9327 25.813 20.467 28.3007C21.0013 30.7884 22.3195 33.0732 24.2547 34.8664C26.19 36.6595 28.6554 37.8803 31.3392 38.3743C34.0229 38.8684 36.8045 38.6135 39.332 37.642C41.8595 36.6704 44.0194 35.0258 45.5385 32.9162C47.0577 30.8065 47.8678 28.3267 47.8664 25.7902C47.8618 22.3911 46.4027 19.1326 43.8094 16.7297C41.216 14.3268 37.7002 12.9759 34.0336 12.9733Z" fill="#0D0628"/>
<path d="M63.2953 18.1375H61.0316V16.1582C61.0316 15.9108 60.9258 15.6735 60.7374 15.4983C60.5491 15.3231 60.2935 15.2242 60.0266 15.2234H53.6144C53.3469 15.2234 53.0905 15.3219 52.9013 15.4972C52.7122 15.6725 52.606 15.9103 52.606 16.1582H50.3457C50.3457 15.3546 50.6901 14.5838 51.3031 14.0156C51.9161 13.4473 52.7475 13.1281 53.6144 13.1281H60.0266C60.8932 13.1289 61.7241 13.4484 62.3369 14.0165C62.9497 14.5846 63.2944 15.3548 63.2953 16.1582V18.1375Z" fill="#0D0628"/>
<path d="M60.0266 21.1676H53.6144C52.7475 21.1676 51.9161 20.8484 51.3031 20.2801C50.6901 19.7118 50.3457 18.9411 50.3457 18.1375H52.606C52.606 18.3854 52.7122 18.6232 52.9013 18.7985C53.0905 18.9738 53.3469 19.0723 53.6144 19.0723H60.0266V21.1676Z" fill="#0D0628"/>
</g>
<defs>
<clipPath id="clip0">
<rect width="66.3858" height="53" fill="white" transform="translate(0.842285)"/>
</clipPath>
</defs>
</svg>
