<svg width="26" height="26" viewBox="0 0 26 26" fill="none" xmlns="http://www.w3.org/2000/svg">
<path d="M13 1C10.6266 1 8.30655 1.70379 6.33316 3.02236C4.35977 4.34094 2.8217 6.21509 1.91345 8.4078C1.0052 10.6005 0.767559 13.0133 1.23058 15.3411C1.6936 17.6689 2.83649 19.8071 4.51472 21.4853C6.19295 23.1635 8.33115 24.3064 10.6589 24.7694C12.9867 25.2324 15.3995 24.9948 17.5922 24.0866C19.7849 23.1783 21.6591 21.6402 22.9776 19.6668C24.2962 17.6935 25 15.3734 25 13C25 9.8174 23.7357 6.76515 21.4853 4.51472C19.2348 2.26428 16.1826 1 13 1ZM21.44 20C21.0136 20.5307 20.5307 21.0136 20 21.44C18.0306 23.067 15.5563 23.9579 13.0018 23.9597C10.4473 23.9615 7.97172 23.0742 6.00001 21.45C5.47308 21.0123 4.98769 20.5269 4.55001 20C2.92298 18.0306 2.03211 15.5563 2.03029 13.0018C2.02846 10.4472 2.91579 7.97171 4.54001 6C4.98897 5.47704 5.47705 4.98897 6.00001 4.54C7.97172 2.91579 10.4473 2.02846 13.0018 2.03028C15.5563 2.03211 18.0306 2.92297 20 4.55C20.5269 4.98768 21.0123 5.47308 21.45 6C23.0937 7.97582 23.9937 10.4648 23.9937 13.035C23.9937 15.6052 23.0937 18.0942 21.45 20.07L21.44 20Z" fill="black"/>
<path d="M22.8701 4.54001C22.4349 4.03311 21.9601 3.56162 21.4501 3.13001C19.0954 1.11593 16.0987 0.00915527 13.0001 0.00915527C9.90154 0.00915527 6.90486 1.11593 4.55013 3.13001C4.03763 3.56249 3.56261 4.03751 3.13013 4.55001C1.11605 6.90473 0.00927734 9.90142 0.00927734 13C0.00927734 16.0986 1.11605 19.0953 3.13013 21.45C3.56174 21.96 4.03323 22.4348 4.54013 22.87C6.89625 24.8894 9.89702 25.9994 13.0001 25.9994C16.1032 25.9994 19.104 24.8894 21.4601 22.87C21.9693 22.4408 22.441 21.9691 22.8701 21.46C24.8895 19.1039 25.9996 16.1031 25.9996 13C25.9996 9.89689 24.8895 6.89613 22.8701 4.54001ZM20.0001 21.44C18.0307 23.067 15.5565 23.9579 13.0019 23.9597C10.4474 23.9616 7.97184 23.0742 6.00013 21.45C5.47321 21.0123 4.98782 20.5269 4.55013 20C2.9231 18.0306 2.03224 15.5564 2.03041 13.0018C2.02859 10.4473 2.91592 7.97172 4.54013 6.00001C4.9891 5.47705 5.47717 4.98898 6.00013 4.54001C7.97184 2.9158 10.4474 2.02847 13.0019 2.03029C15.5565 2.03212 18.0307 2.92298 20.0001 4.55001C20.5271 4.98769 21.0125 5.47309 21.4501 6.00001C23.0939 7.97583 23.9938 10.4649 23.9938 13.035C23.9938 15.6052 23.0939 18.0942 21.4501 20.07C21.0168 20.5768 20.5307 21.0361 20.0001 21.44Z" fill="black"/>
<path d="M22.8704 21.46C22.4412 21.9691 21.9695 22.4408 21.4604 22.87L13.0004 14.41L11.5804 13L3.13037 4.55C3.56285 4.03751 4.03787 3.56248 4.55037 3.13L5.26037 3.84L5.96037 4.54L12.9604 11.54L14.4104 13L22.8704 21.46Z" fill="black"/>
<path d="M22.8704 4.54003L22.1504 5.26003L14.4104 13L13.0004 14.41L6.00037 21.41L4.54037 22.87C4.03347 22.4348 3.56198 21.96 3.13037 21.45L3.84037 20.74L4.55037 20L11.5504 13L13.0004 11.58L20.0004 4.58003L20.7104 3.87003L21.4204 3.16003C21.9395 3.58085 22.4244 4.04231 22.8704 4.54003Z" fill="black"/>
</svg>
