<svg width="70" height="50" viewBox="0 0 70 50" fill="none" xmlns="http://www.w3.org/2000/svg">
<path d="M67.7122 8.83847C67.5993 8.71498 67.4794 8.59502 67.3594 8.48564C66.6259 7.79251 65.7722 7.23892 64.8402 6.85202C64.5988 6.50272 64.3311 6.17244 64.0392 5.86409C63.9285 5.73979 63.8107 5.62198 63.6864 5.51125C63.0132 4.87309 62.238 4.35195 61.393 3.96937C61.0964 3.48726 60.7512 3.0368 60.3627 2.62508C60.2498 2.50041 60.1322 2.3828 60.0099 2.27225C58.4663 0.812384 56.4221 -0.000739833 54.2975 5.05107e-07H8.32687C6.20704 0.000770708 4.16751 0.811026 2.62508 2.26519C2.50041 2.3828 2.3828 2.50041 2.27225 2.61802C0.812299 4.16015 -0.00091357 6.20328 2.7848e-06 8.32686V35.4668C-0.0017339 37.5871 0.808876 39.6275 2.26519 41.1686C2.38163 41.2921 2.50159 41.4156 2.61803 41.5214C3.29389 42.1516 4.06868 42.6666 4.91144 43.0456C5.21042 43.5271 5.55674 43.9774 5.94524 44.3899C6.05815 44.5134 6.17811 44.6334 6.29808 44.7428C7.03081 45.443 7.88591 46.0027 8.82083 46.394C9.06094 46.7433 9.32752 47.0736 9.61824 47.382C9.72897 47.5063 9.84677 47.6241 9.97107 47.7348C11.5117 49.1917 13.5524 50.0024 15.6729 50H61.6541C63.7744 50.0017 65.8148 49.1911 67.3559 47.7348C67.4794 47.6232 67.5971 47.5055 67.7087 47.382C69.166 45.8413 69.9778 43.8009 69.9774 41.6802V14.5403C69.9788 12.42 69.1682 10.3797 67.7122 8.83847ZM57.974 45.0815H11.9963C10.6772 45.0831 9.39046 44.6723 8.31628 43.9066L8.16103 43.7901H54.2975C55.5504 43.7924 56.7873 43.5089 57.914 42.961C58.464 42.6965 58.9824 42.3711 59.4595 41.9907C59.5724 41.9025 59.6782 41.8143 59.7841 41.719L59.9993 41.5249C60.1228 41.4133 60.2405 41.2956 60.3521 41.1721C60.4474 41.0698 60.5427 40.9639 60.6344 40.8581C61.9156 39.3554 62.6187 37.445 62.6173 35.4703V8.24218C62.613 7.8881 62.5871 7.53461 62.5397 7.18368V7.10253L62.6138 7.18368C62.9725 7.56354 63.2841 7.98528 63.5417 8.43977C64.0784 9.39171 64.3603 10.466 64.3603 11.5588V38.6952C64.3603 39.5339 64.1951 40.3643 63.8742 41.1391C63.5532 41.914 63.0828 42.618 62.4898 43.211C61.8968 43.804 61.1928 44.2744 60.418 44.5954C59.6431 44.9163 58.8127 45.0815 57.974 45.0815ZM1.94764 35.4668V8.32686C1.94951 6.63556 2.6222 5.01407 3.81814 3.81813C5.01407 2.6222 6.63556 1.94951 8.32687 1.94764H54.2975C55.6817 1.94707 57.0278 2.40073 58.1293 3.23901C58.5094 3.52105 58.8562 3.84538 59.1631 4.20577C59.5019 4.60755 59.7898 5.04958 60.0205 5.52184C60.1315 5.75127 60.2293 5.98688 60.3133 6.22751C60.4247 6.54481 60.5109 6.87043 60.5709 7.20133C60.6307 7.52265 60.6637 7.84837 60.6697 8.17515C60.6697 8.2316 60.6697 8.28452 60.6697 8.34098V35.4809C60.6679 36.4275 60.4545 37.3618 60.0452 38.2154C59.8509 38.6247 59.6144 39.0125 59.3395 39.3727C59.0975 39.6841 58.8283 39.9734 58.535 40.2371C57.372 41.2819 55.8645 41.8611 54.301 41.8637H8.32687C8.00174 41.8605 7.67734 41.8321 7.35658 41.779C6.99702 41.7236 6.64288 41.6374 6.29808 41.5214C5.71685 41.3226 5.16681 41.0423 4.66446 40.6887C4.34915 40.4643 4.054 40.2129 3.78237 39.9372C2.60565 38.747 1.94629 37.1405 1.94764 35.4668ZM61.6541 48.0629H15.6834C14.4503 48.0627 13.244 47.7035 12.2116 47.0291H57.974C60.0949 47.0303 62.1355 46.2183 63.6758 44.7604C63.8001 44.6497 63.9179 44.5319 64.0286 44.4076C65.4866 42.8673 66.2985 40.8267 66.2974 38.7058V11.5623C66.296 11.0474 66.2476 10.5336 66.1527 10.0275C66.7475 10.6188 67.2193 11.322 67.5408 12.0965C67.8624 12.871 68.0274 13.7016 68.0263 14.5403V41.6802C68.0244 43.3706 67.3528 44.9914 66.1585 46.1877C64.9642 47.384 63.3445 48.0583 61.6541 48.0629Z" fill="#0D0628"/>
<path d="M13.4992 34.2248H53.5211L53.4293 33.1663C53.3056 32.0526 53.098 30.9498 52.8084 29.8673C52.706 29.4686 52.5861 29.0382 52.4555 28.5901C52.2756 28.0079 52.0639 27.3869 51.8134 26.7448C51.6793 26.3919 51.5311 26.0391 51.3759 25.6863C51.2771 25.4675 51.1783 25.2488 51.0724 25.0229C50.7655 24.3702 50.4197 23.7033 50.0139 23.0365C49.8834 22.8177 49.7458 22.5954 49.6046 22.3732C48.1501 20.0454 46.2394 18.0362 43.9875 16.4667C43.5171 16.1445 43.029 15.8387 42.5233 15.5494C41.8499 15.17 41.1548 14.8307 40.4416 14.5332C40.1417 14.4062 39.8276 14.2898 39.5136 14.1804C39.1996 14.071 38.8891 13.9616 38.568 13.8628C38.2469 13.764 37.8624 13.6582 37.5095 13.5664C36.9732 13.4324 36.4228 13.3124 35.8477 13.2136C35.6501 13.1783 35.449 13.1501 35.2443 13.1184C35.9661 12.3834 36.4694 11.4624 36.698 10.458C36.7723 10.1227 36.816 9.78144 36.8285 9.4383C36.8285 9.37126 36.8285 9.30422 36.8285 9.23718C36.8273 8.94751 36.8025 8.65841 36.7545 8.37274C36.7545 8.30923 36.7545 8.24219 36.7262 8.17868C36.5865 7.48589 36.3184 6.82533 35.9359 6.23105C35.692 5.85171 35.4016 5.50441 35.0714 5.19724C34.6458 4.80058 34.1614 4.47209 33.6354 4.22342C32.9017 3.87489 32.0996 3.69406 31.2873 3.69406C30.475 3.69406 29.6729 3.87489 28.9392 4.22342C28.1514 4.59627 27.4617 5.14806 26.9251 5.83479C26.3885 6.52152 26.0197 7.32416 25.8484 8.17868C25.7819 8.52763 25.7476 8.88196 25.7461 9.23718C25.7468 10.6896 26.3183 12.0835 27.3373 13.1184C19.4056 14.2862 14.9741 18.9895 12.6066 23.0224C10.9419 25.9005 9.82122 29.0604 9.3005 32.3442C9.22994 32.8206 9.20171 33.1134 9.19818 33.1593L9.10645 34.2178H13.4992V34.2248ZM14.3178 23.9609C17.645 18.3156 22.7858 15.2706 29.5884 14.8331C29.9165 14.8119 30.2482 14.8014 30.5834 14.7908C30.8269 14.7908 31.0668 14.7908 31.3138 14.7908H31.596C32.4393 14.7908 33.2614 14.8402 34.0659 14.9249C34.4399 14.9637 34.8033 15.0166 35.1632 15.073C35.5231 15.1295 35.9394 15.2036 36.3169 15.2847C36.8709 15.4012 37.4107 15.5282 37.9364 15.687C38.2611 15.7822 38.5751 15.8916 38.8891 16.0045C39.2031 16.1174 39.5066 16.2374 39.8065 16.3574C40.6553 16.7105 41.4742 17.1317 42.2551 17.617C42.608 17.8251 42.9149 18.0439 43.2325 18.2768C43.4795 18.4532 43.7159 18.6296 43.9381 18.8342L44.111 18.9719C44.8727 19.6038 45.5808 20.2978 46.228 21.0465C46.8427 21.766 47.4063 22.5276 47.9146 23.3258L48.0663 23.5657C48.1474 23.6998 48.2356 23.8268 48.3168 23.9644C48.4826 24.2397 48.6343 24.5184 48.7825 24.7936C49.0542 25.3087 49.3047 25.8168 49.527 26.3178C50.3696 28.2269 50.9808 30.23 51.3476 32.2842H11.2905C11.8058 29.351 12.8303 26.5305 14.3178 23.9503V23.9609ZM27.7255 9.23013C27.7254 8.87109 27.7801 8.51415 27.8878 8.17163C27.9933 7.82423 28.1529 7.49561 28.3606 7.19781C28.6263 6.81205 28.9642 6.48137 29.3555 6.22399C29.9403 5.83971 30.6247 5.63495 31.3244 5.63495C32.024 5.63495 32.7084 5.83971 33.2932 6.22399C33.683 6.48333 34.0205 6.81368 34.2882 7.19781C34.4735 7.46924 34.6208 7.76485 34.7257 8.07636L34.7609 8.17163C34.8464 8.45363 34.8962 8.74522 34.9091 9.0396C34.9091 9.10311 34.9091 9.16662 34.9091 9.23013C34.9093 9.49508 34.8785 9.75914 34.8174 10.0169C34.6452 10.7846 34.2256 11.4745 33.6233 11.9806C33.0209 12.4868 32.269 12.7811 31.4831 12.8184H31.3138C30.3599 12.8184 29.445 12.4398 28.7702 11.7656C28.0954 11.0914 27.7158 10.1769 27.7149 9.22307L27.7255 9.23013Z" fill="#0D0628"/>
</svg>
