<svg width="84" height="54" viewBox="0 0 84 54" fill="none" xmlns="http://www.w3.org/2000/svg">
<path d="M43.8374 47.2448L18.4624 40.0437V12.0474L40.1645 0L65.5471 7.20864V35.4031L43.8374 47.2448ZM20.5351 38.4816L43.5898 45.0273L63.4783 34.1686V8.76314L40.4236 2.22508L20.5275 13.2743L20.5351 38.4816Z" fill="#0D0628"/>
<path d="M42.6792 46.136L42.6715 20.1362L19.2168 13.6553L19.7693 11.6588L44.7442 18.5588L44.748 46.136H42.6792Z" fill="#0D0628"/>
<path d="M64.0094 7.0772L43.207 18.4379L44.2005 20.2569L65.0028 8.89628L64.0094 7.0772Z" fill="#0D0628"/>
<path d="M47.0915 28.7506L46.5254 30.7445L64.232 35.7717L64.7981 33.7778L47.0915 28.7506Z" fill="#0D0628"/>
<path d="M41.3305 1.11255H39.2578V13.24H41.3305V1.11255Z" fill="#0D0628"/>
<path d="M19.9939 40.1695L18.9995 38.3521L39.2652 27.2876L39.2614 23.1309H41.3341V28.5145L19.9939 40.1695Z" fill="#0D0628"/>
<path d="M46.9934 22.3407L46.6167 23.6675L60.8084 27.6968L61.1851 26.37L46.9934 22.3407Z" fill="#0D0628"/>
<path d="M45.1289 54L0.101562 41.2135L14.8427 33.1628L15.5056 34.3782L3.72874 40.8058L44.965 52.5179L80.2843 33.2314L69.0599 30.0424L69.4371 28.7126L83.9115 32.8237L45.1289 54Z" fill="#0D0628"/>
<path d="M23.5029 30.008L22.8438 28.7964L38.8841 20.0371L40.4881 20.4943L40.111 21.8202L39.0479 21.5192L23.5029 30.008Z" fill="#0D0628"/>
</svg>
