<svg width="47" height="48" viewBox="0 0 47 48" fill="none" xmlns="http://www.w3.org/2000/svg">
<path d="M25.2844 47.5L0.0351562 40.3305V12.4747L21.63 0.5L46.876 7.66955V35.7077L25.2844 47.5ZM2.10113 38.7752L25.0357 45.2881L44.8233 34.4841V9.22815L21.8854 2.7152L2.09781 13.6983L2.10113 38.7752Z" fill="#0D0628"/>
<path d="M24.1307 46.3957L24.124 20.533L0.791504 14.083L1.34199 12.0966L26.1834 18.9611L26.19 46.3957H24.1307Z" fill="#0D0628"/>
<path d="M45.3562 7.54916L24.6611 18.8466L25.6479 20.6541L46.343 9.3567L45.3562 7.54916Z" fill="#0D0628"/>
<path d="M28.5205 29.1038L27.958 31.0848L45.5705 36.0853L46.1329 34.1042L28.5205 29.1038Z" fill="#0D0628"/>
<path d="M22.7879 1.60767H20.7285V13.6719H22.7879V1.60767Z" fill="#0D0628"/>
<path d="M1.564 40.4565L0.579102 38.6492L20.7347 27.6428L20.7314 23.5109L22.7941 23.5076V28.8665L1.564 40.4565Z" fill="#0D0628"/>
</svg>
