<svg width="53" height="41" viewBox="0 0 53 41" fill="none" xmlns="http://www.w3.org/2000/svg">
<path d="M17.4767 30.6833C16.5508 30.6833 15.6458 30.9571 14.8759 31.4699C14.1061 31.9828 13.5061 32.7117 13.1518 33.5646C12.7974 34.4175 12.7047 35.3559 12.8854 36.2613C13.066 37.1667 13.5118 37.9984 14.1665 38.6511C14.8212 39.3039 15.6554 39.7484 16.5634 39.9285C17.4715 40.1086 18.4128 40.0162 19.2682 39.6629C20.1236 39.3096 20.8547 38.7114 21.3691 37.9438C21.8835 37.1763 22.158 36.2739 22.158 35.3508C22.158 34.1129 21.6648 32.9257 20.7869 32.0504C19.909 31.1751 18.7183 30.6833 17.4767 30.6833ZM17.4767 38.1326C16.9212 38.1326 16.3781 37.9683 15.9162 37.6606C15.4543 37.3529 15.0943 36.9155 14.8817 36.4038C14.6692 35.8921 14.6135 35.329 14.7219 34.7857C14.8303 34.2425 15.0978 33.7435 15.4906 33.3519C15.8834 32.9602 16.3839 32.6935 16.9288 32.5854C17.4736 32.4774 18.0384 32.5328 18.5516 32.7448C19.0648 32.9568 19.5035 33.3157 19.8121 33.7762C20.1208 34.2368 20.2855 34.7782 20.2855 35.3321C20.2855 36.0748 19.9896 36.7871 19.4628 37.3123C18.9361 37.8375 18.2217 38.1326 17.4767 38.1326Z" fill="black"/>
<path d="M36.7477 30.6833C35.8218 30.6833 34.9168 30.9571 34.1469 31.4699C33.3771 31.9828 32.7771 32.7117 32.4228 33.5646C32.0684 34.4175 31.9757 35.3559 32.1564 36.2613C32.337 37.1667 32.7828 37.9984 33.4375 38.6511C34.0922 39.3039 34.9264 39.7484 35.8344 39.9285C36.7425 40.1086 37.6838 40.0162 38.5392 39.6629C39.3946 39.3096 40.1257 38.7114 40.6401 37.9438C41.1545 37.1763 41.429 36.2739 41.429 35.3508C41.429 34.1129 40.9358 32.9257 40.0579 32.0504C39.18 31.1751 37.9893 30.6833 36.7477 30.6833ZM36.7477 38.1326C36.1922 38.1326 35.6491 37.9683 35.1872 37.6606C34.7253 37.3529 34.3653 36.9155 34.1527 36.4038C33.9401 35.8921 33.8845 35.329 33.9929 34.7857C34.1013 34.2425 34.3688 33.7435 34.7616 33.3519C35.1544 32.9602 35.6549 32.6935 36.1998 32.5854C36.7446 32.4774 37.3094 32.5328 37.8226 32.7448C38.3358 32.9568 38.7745 33.3157 39.0831 33.7762C39.3918 34.2368 39.5565 34.7782 39.5565 35.3321C39.5565 36.0748 39.2606 36.7871 38.7338 37.3123C38.2071 37.8375 37.4927 38.1326 36.7477 38.1326Z" fill="black"/>
<path d="M44.3162 15.3056C43.9936 15.3044 43.6749 15.2366 43.3799 15.1065L42.6278 19.8455C42.556 20.3029 41.9443 20.7168 41.4262 20.6701L40.4369 20.6545H13.9251L14.6679 25.6487H40.2403C40.4832 25.6527 40.7151 25.7507 40.8868 25.922C41.0586 26.0933 41.1569 26.3244 41.1609 26.5666C41.1613 26.6864 41.1378 26.805 41.0917 26.9156C41.0456 27.0262 40.9779 27.1265 40.8926 27.2107C40.7194 27.3836 40.4853 27.4819 40.2403 27.4846H13.8439H13.7129C13.4852 27.4651 13.2731 27.3614 13.1183 27.1938C12.9635 27.0262 12.8772 26.8069 12.8765 26.5791C12.8749 26.5584 12.8749 26.5376 12.8765 26.5168L12.9077 26.3613L9.62764 4.20024H2.80853C2.63141 4.19238 2.46016 4.13454 2.31471 4.03344C2.16927 3.93234 2.05561 3.79214 1.98695 3.62916C1.91829 3.46617 1.89746 3.2871 1.92689 3.11277C1.95631 2.93845 2.03477 2.77603 2.15315 2.64443C2.3255 2.4674 2.56113 2.3656 2.80853 2.36127H10.7543C10.901 2.41033 11.0313 2.49871 11.1309 2.61671C11.2305 2.73472 11.2957 2.8778 11.3192 3.03027L12.065 8.08978L36.7199 8.24536C36.6695 8.05445 36.6443 7.85779 36.645 7.66038C36.644 7.20429 36.7787 6.75815 37.032 6.37838L13.6817 6.2228L13.1698 2.75645C13.0875 2.21759 12.8442 1.71595 12.4718 1.31689C12.0994 0.917833 11.6151 0.63986 11.082 0.519186L10.9821 0.494293H2.80853C2.11565 0.563637 1.4733 0.887135 1.00613 1.40202C0.538955 1.9169 0.280273 2.58645 0.280273 3.28076C0.280273 3.97506 0.538955 4.64462 1.00613 5.1595C1.4733 5.67438 2.11565 5.99788 2.80853 6.06722H8.01415L11.0133 26.3364C11.0092 26.4131 11.0092 26.4899 11.0133 26.5666C11.0186 27.2718 11.2906 27.9489 11.7748 28.4629C12.2591 28.9769 12.92 29.2898 13.6255 29.3391C13.6837 29.3423 13.742 29.3423 13.8003 29.3391H40.2434C40.9842 29.3391 41.6947 29.0457 42.2185 28.5234C42.7423 28.0011 43.0366 27.2928 43.0366 26.5542C43.0366 25.8156 42.7423 25.1072 42.2185 24.585C41.6947 24.0627 40.9842 23.7693 40.2434 23.7693H16.2813L16.0941 22.5091H41.136L42.0098 22.4873C42.6114 22.3878 43.1687 22.1093 43.6087 21.6884C44.0487 21.2675 44.3508 20.7238 44.4753 20.1287L45.2743 15.0909C44.974 15.2301 44.6473 15.3033 44.3162 15.3056Z" fill="black"/>
<path d="M49.637 5.28932H46.6847V2.35194C46.6857 2.0427 46.6247 1.73637 46.5051 1.45101C46.3856 1.16565 46.21 0.90701 45.9887 0.690331C45.659 0.360994 45.2386 0.136586 44.7809 0.0454993C44.3231 -0.0455876 43.8486 0.000739793 43.4173 0.17862C42.9859 0.356501 42.6172 0.65794 42.3578 1.0448C42.0983 1.43166 41.9598 1.88656 41.9597 2.35194V5.28932H39.0105C38.618 5.29033 38.2319 5.3887 37.887 5.57556C37.5421 5.76242 37.2493 6.0319 37.035 6.35972C36.7816 6.73949 36.647 7.18563 36.648 7.64171C36.6473 7.83913 36.6724 8.03579 36.7229 8.2267C36.8518 8.73453 37.1466 9.18512 37.5608 9.5074C37.975 9.82967 38.4851 10.0053 39.0105 10.0066H41.9628V12.9502C41.9611 13.2611 42.0215 13.5692 42.1405 13.8566C42.2594 14.144 42.4345 14.405 42.6556 14.6242C42.8652 14.828 43.1107 14.9915 43.3797 15.1065C43.7391 15.263 44.1318 15.3279 44.5226 15.2952C44.9134 15.2626 45.2899 15.1334 45.6181 14.9195C45.9463 14.7055 46.216 14.4135 46.4027 14.0697C46.5895 13.7259 46.6874 13.3411 46.6878 12.9502V10.0066H49.6402C50.2657 10.0033 50.8647 9.75406 51.3071 9.31303C51.7494 8.87199 51.9994 8.27476 52.0027 7.65105C52.0031 7.34105 51.9422 7.03401 51.8235 6.74749C51.7048 6.46097 51.5306 6.20059 51.3109 5.98124C51.0912 5.7619 50.8303 5.58788 50.543 5.46916C50.2558 5.35043 49.948 5.28932 49.637 5.28932ZM50.4204 8.42273C50.2135 8.63189 49.9317 8.75054 49.637 8.75256H45.4363V12.9502C45.4347 13.2453 45.3159 13.5279 45.106 13.736C44.8961 13.9442 44.612 14.061 44.316 14.061C44.0445 14.0616 43.7828 13.9605 43.5825 13.7778L43.5326 13.7312C43.4278 13.6298 43.3444 13.5084 43.2876 13.3742C43.2308 13.24 43.2016 13.0958 43.2018 12.9502V8.7619H39.0105C38.8232 8.76073 38.6392 8.7125 38.4756 8.62167C38.3119 8.53084 38.1739 8.40035 38.0742 8.24226C37.9592 8.06646 37.8985 7.86091 37.8994 7.65105C37.9002 7.35664 38.0173 7.07438 38.2252 6.86533C38.4331 6.65628 38.7152 6.53724 39.0105 6.53397H43.2112V2.35194C43.2128 2.05972 43.3295 1.77984 43.5362 1.57263C43.7428 1.36541 44.0229 1.24746 44.316 1.2442C44.4607 1.24138 44.6046 1.26745 44.7391 1.32089C44.8737 1.37433 44.9961 1.45405 45.0993 1.55536C45.2037 1.6571 45.2868 1.77856 45.3436 1.91267C45.4004 2.04677 45.4298 2.19081 45.4301 2.33638V6.53397H49.6308C49.9255 6.53479 50.2079 6.65166 50.4166 6.85914C50.6253 7.06661 50.7433 7.34789 50.745 7.64171C50.7463 7.78836 50.7184 7.93381 50.6626 8.06953C50.6069 8.20525 50.5245 8.3285 50.4204 8.43207V8.42273Z" fill="black"/>
</svg>
