<svg width="62" height="54" viewBox="0 0 62 54" fill="none" xmlns="http://www.w3.org/2000/svg">
<g clip-path="url(#clip0)">
<path d="M62 47.1562H0V12.4288C0.000859666 11.6254 0.322764 10.8552 0.895078 10.2871C1.46739 9.71901 2.24337 9.39949 3.05275 9.39863H12.5617C13.709 9.40431 14.8348 9.09003 15.8109 8.49161C16.787 7.8932 17.5741 7.03469 18.0827 6.0139C18.7657 4.64655 19.8206 3.4962 21.128 2.69296C22.4354 1.88971 23.9431 1.46563 25.4807 1.46868H36.5225C38.061 1.46338 39.5703 1.8861 40.879 2.68891C42.1878 3.49171 43.2437 4.64247 43.9271 6.01067C44.4365 7.03075 45.2239 7.88863 46.1998 8.48692C47.1757 9.08521 48.301 9.39995 49.448 9.39541H58.9602C59.7696 9.39626 60.5456 9.71578 61.1179 10.2839C61.6902 10.8519 62.0121 11.6222 62.013 12.4256L62 47.1562ZM2.11419 45.0609H59.8858V12.4288C59.8858 12.1814 59.787 11.9441 59.6111 11.7689C59.4352 11.5937 59.1965 11.4948 58.9473 11.4939H49.435C47.8963 11.4982 46.3872 11.0747 45.0785 10.2714C43.7699 9.46806 42.714 8.31706 42.0305 6.94873C41.5212 5.92877 40.7338 5.07114 39.7578 4.47335C38.7818 3.87557 37.6564 3.56162 36.5096 3.56721H25.4677C24.3243 3.56599 23.2034 3.88195 22.2313 4.47945C21.2592 5.07695 20.4747 5.93221 19.9663 6.94873C19.2829 8.31693 18.227 9.46769 16.9182 10.2705C15.6094 11.0733 14.1002 11.496 12.5617 11.4907H3.05275C2.92895 11.4907 2.80637 11.515 2.69207 11.5622C2.57777 11.6095 2.47402 11.6787 2.38678 11.7659C2.29954 11.8531 2.23054 11.9565 2.18376 12.0703C2.13698 12.1841 2.11333 12.3059 2.11419 12.4288V45.0609Z" fill="#0D0628"/>
<path d="M30.9982 41.212C28.0257 41.212 25.1199 40.3371 22.6483 38.698C20.1768 37.0589 18.2503 34.7291 17.1127 32.0033C15.975 29.2774 15.6772 26.2779 16.2568 23.3841C16.8365 20.4903 18.2676 17.832 20.3693 15.7455C22.4709 13.6589 25.1487 12.2378 28.064 11.6618C30.9793 11.0858 34.0012 11.3808 36.7476 12.5095C39.494 13.6381 41.8416 15.5498 43.4935 18.0027C45.1454 20.4556 46.0274 23.3397 46.0281 26.2902C46.0247 30.2461 44.4401 34.039 41.6223 36.8366C38.8045 39.6342 34.9836 41.2078 30.9982 41.212ZM30.9982 13.4733C28.4428 13.4733 25.9448 14.2255 23.8201 15.6349C21.6955 17.0442 20.0396 19.0473 19.062 21.3908C18.0844 23.7344 17.8289 26.313 18.3279 28.8007C18.8269 31.2884 20.058 33.5732 21.8654 35.3664C23.6728 37.1595 25.9753 38.3803 28.4818 38.8743C30.9883 39.3684 33.586 39.1135 35.9466 38.142C38.3071 37.1704 40.3243 35.5258 41.7431 33.4162C43.1618 31.3065 43.9184 28.8267 43.9171 26.2902C43.9128 22.8911 42.5502 19.6326 40.1281 17.2297C37.7061 14.8268 34.4226 13.4759 30.9982 13.4733Z" fill="#0D0628"/>
<path d="M58.327 18.6374H56.2128V16.6582C56.2128 16.4108 56.114 16.1735 55.9381 15.9983C55.7622 15.8231 55.5235 15.7242 55.2742 15.7233H49.2857C49.0359 15.7233 48.7963 15.8218 48.6197 15.9971C48.4431 16.1725 48.3439 16.4102 48.3439 16.6582H46.2329C46.2329 15.8545 46.5545 15.0838 47.127 14.5155C47.6995 13.9473 48.476 13.628 49.2857 13.628H55.2742C56.0836 13.6289 56.8596 13.9484 57.4319 14.5165C58.0042 15.0845 58.3261 15.8548 58.327 16.6582V18.6374Z" fill="#0D0628"/>
<path d="M55.2742 21.6676H49.2857C48.476 21.6676 47.6995 21.3483 47.127 20.7801C46.5545 20.2118 46.2329 19.4411 46.2329 18.6374H48.3439C48.3439 18.8854 48.4431 19.1231 48.6197 19.2984C48.7963 19.4738 49.0359 19.5723 49.2857 19.5723H55.2742V21.6676Z" fill="#0D0628"/>
</g>
<defs>
<clipPath id="clip0">
<rect width="62" height="53" fill="white" transform="translate(0 0.5)"/>
</clipPath>
</defs>
</svg>
