<svg width="23" height="37" viewBox="0 0 23 37" fill="none" xmlns="http://www.w3.org/2000/svg">
<g clip-path="url(#clip0)">
<path d="M16.9668 7.00908L17.7681 6.87188L17.3817 4.65416C17.2905 4.1324 17.0736 3.6402 16.7496 3.21939C16.4256 2.79858 16.0039 2.4616 15.5205 2.2371L15.1764 2.96343C15.541 3.13302 15.859 3.38736 16.1034 3.70487C16.3479 4.02238 16.5115 4.3937 16.5804 4.78732L16.9668 7.00908Z" fill="#0D0628"/>
<path d="M0.942616 9.79899L1.74387 9.66179L1.35097 7.4021C1.23763 6.75444 1.38819 6.08863 1.76955 5.55108C2.15091 5.01353 2.73185 4.64823 3.38462 4.53553L4.96436 4.26436L4.82607 3.46944L3.24633 3.7406C2.38045 3.88904 1.60947 4.37265 1.10299 5.08504C0.596518 5.79744 0.396035 6.68026 0.545647 7.5393L0.942616 9.79899Z" fill="#0D0628"/>
<path d="M3.86926 26.5909L4.34269 26.3891C5.42753 25.9278 6.53619 25.5237 7.66404 25.1786L8.08785 25.0486L7.92028 24.6403C7.61304 23.8887 7.38805 23.1065 7.24918 22.3072C6.65454 18.895 7.37771 15.7621 9.39834 12.9948C9.80303 12.4403 10.2472 11.9152 10.7275 11.4235L11.0806 11.0628L10.6486 10.7989C9.87251 10.3297 9.03565 9.96753 8.16107 9.72231C7.13238 9.43809 6.07418 9.2721 5.00729 9.2276C3.92783 9.17111 2.75075 9.20258 1.30443 9.32848L0.863532 9.36722L3.86926 26.5909ZM7.00921 24.533C6.16321 24.8041 5.32128 25.1108 4.49562 25.4489L1.82016 10.0968C2.86701 10.0077 3.91862 9.98667 4.96824 10.0338C5.97311 10.0754 6.96985 10.2311 7.93899 10.4979C8.58074 10.679 9.20134 10.9271 9.79042 11.2379C9.41664 11.6448 9.06577 12.0718 8.73943 12.5171C6.61549 15.4224 5.82319 18.8571 6.44792 22.4435C6.57186 23.1552 6.75971 23.8545 7.00921 24.533Z" fill="#0D0628"/>
<path d="M21.6337 34.1681L22.5 34.0196L17.6916 6.42963L17.2564 6.5523C16.8554 6.66528 16.4373 6.80732 16.0119 6.97357C13.8068 7.8525 11.8099 9.17629 10.1476 10.861C9.63942 11.3794 9.16887 11.9328 8.73953 12.5171C6.61559 15.4224 5.82328 18.8571 6.44802 22.4436C6.5966 23.3007 6.83769 24.1394 7.16711 24.9454L7.31109 25.2835L7.66413 25.1786C8.26691 24.9938 8.86805 24.8275 9.45374 24.6839L9.73113 24.6161L9.76123 24.3344C9.81796 23.7999 10.0506 23.2987 10.4233 22.9086C10.7959 22.5184 11.2878 22.2609 11.8228 22.1759C12.3578 22.0909 12.9061 22.1832 13.3829 22.4384C13.8597 22.6937 14.2385 23.0977 14.4606 23.5879L14.5769 23.8454L14.8608 23.8252C17.3825 23.6452 19.1957 23.8333 19.8571 23.922C20.0702 25.0801 20.8959 29.5955 21.5702 33.7678L21.6337 34.1681ZM8.99333 23.9624C8.59636 24.0641 8.19207 24.1747 7.78697 24.2941C7.54711 23.648 7.36713 22.9816 7.24927 22.3031C6.65463 18.891 7.3778 15.7581 9.39843 12.9908C9.80328 12.4376 10.2475 11.9139 10.7276 11.4235C12.3092 9.81998 14.2095 8.56018 16.308 7.72411C16.5561 7.62726 16.8017 7.53849 17.0401 7.46021L19.7643 23.0924C18.9802 22.9964 17.324 22.856 15.0658 22.998C14.7377 22.4172 14.2378 21.9502 13.6337 21.6602C13.0295 21.3702 12.3503 21.271 11.6875 21.3762C11.0248 21.4813 10.4106 21.7857 9.92777 22.2482C9.44495 22.7107 9.1168 23.309 8.98763 23.9624H8.99333Z" fill="#0D0628"/>
<path d="M17.8861 30.1935C17.9491 30.1933 18.0119 30.1879 18.074 30.1774C18.2157 30.1534 18.3512 30.102 18.4728 30.0261C18.5944 29.9502 18.6998 29.8513 18.7829 29.735C18.866 29.6187 18.9252 29.4873 18.9571 29.3483C18.989 29.2093 18.993 29.0654 18.9688 28.9248C18.9444 28.7846 18.8924 28.6504 18.8157 28.5301C18.7391 28.4098 18.6393 28.3056 18.5221 28.2236C18.4048 28.1415 18.2724 28.0832 18.1325 28.0519C17.9925 28.0206 17.8477 28.0169 17.7063 28.0411C17.5643 28.0647 17.4283 28.1158 17.3063 28.1916C17.1842 28.2674 17.0784 28.3664 16.995 28.4828C16.9116 28.5993 16.8521 28.7309 16.8201 28.8702C16.788 29.0095 16.784 29.1536 16.8083 29.2945C16.8525 29.5462 16.9849 29.7744 17.182 29.9389C17.3792 30.1033 17.6285 30.1935 17.8861 30.1935ZM17.8861 28.832C17.9444 28.8315 18.0013 28.8493 18.0488 28.8829C18.1093 28.9252 18.1504 28.9895 18.1631 29.0619C18.1757 29.1342 18.1589 29.2086 18.1163 29.2686C18.0737 29.3287 18.0088 29.3695 17.9359 29.382C17.8629 29.3946 17.788 29.3779 17.7275 29.3356C17.6974 29.3148 17.6719 29.2882 17.6523 29.2574C17.6328 29.2267 17.6196 29.1923 17.6136 29.1565C17.607 29.1205 17.6077 29.0836 17.6156 29.0478C17.6234 29.0121 17.6383 28.9783 17.6594 28.9483C17.6805 28.9183 17.7074 28.8927 17.7385 28.873C17.7695 28.8534 17.8042 28.84 17.8405 28.8336C17.8557 28.8321 17.8709 28.8315 17.8861 28.832Z" fill="#0D0628"/>
<path d="M8.88924 24.8186L9.45296 24.6798C11.227 24.2411 13.0357 23.9538 14.8592 23.8212L15.4392 23.78L15.2009 23.2538C14.9056 22.6016 14.4019 22.0641 13.7678 21.7245C13.1336 21.3849 12.4043 21.262 11.6927 21.3749C10.9811 21.4878 10.3268 21.8302 9.83106 22.3492C9.33532 22.8681 9.02575 23.5346 8.95024 24.2457L8.88924 24.8186ZM14.1442 23.0698C12.7149 23.2028 11.2959 23.4285 9.8963 23.7453C10.0471 23.337 10.3049 22.9759 10.6431 22.6994C10.9813 22.4228 11.3878 22.2407 11.8206 22.1719C12.2534 22.1031 12.6969 22.15 13.1053 22.3078C13.5137 22.4657 13.8723 22.7287 14.1442 23.0698Z" fill="#0D0628"/>
<path d="M10.5031 11.6552L10.7308 11.4235C12.3124 9.81998 14.2127 8.56017 16.3112 7.7241L16.7952 7.53445L16.4926 7.11479C15.8814 6.26669 15.0107 5.63693 14.0099 5.31915C13.009 5.00136 11.9315 5.01252 10.9376 5.35098C9.94368 5.68943 9.0864 6.33709 8.49324 7.19767C7.90008 8.05824 7.60272 9.08576 7.64537 10.1274L7.65757 10.418L7.93903 10.4987C8.74289 10.7231 9.51218 11.0552 10.2257 11.4857L10.5031 11.6552ZM15.5018 7.18177C13.5976 8.0158 11.8613 9.18495 10.377 10.6326C9.76839 10.2926 9.12583 10.0161 8.45964 9.80786C8.48435 9.00843 8.74796 8.23432 9.217 7.58382C9.68604 6.93332 10.3393 6.43577 11.094 6.15437C11.8486 5.87296 12.6705 5.82038 13.4553 6.00331C14.2401 6.18624 14.9524 6.59642 15.5018 7.18177Z" fill="#0D0628"/>
<path d="M8.48162 10.652L8.45803 10.0927C8.42973 9.39263 8.58567 8.69727 8.91051 8.0751C9.23535 7.45294 9.71789 6.92541 10.3106 6.54445C10.9034 6.16348 11.5859 5.94221 12.291 5.90241C12.9961 5.8626 13.6995 6.00564 14.332 6.31745L14.5883 6.44415L14.7949 6.24804C15.9443 5.15209 16.2827 3.76642 15.723 2.44612C15.1796 1.1589 13.8781 0.159796 12.5587 0.0169509C11.7452 -0.0710156 11.0359 0.178357 10.5128 0.72149C9.30484 0.0266352 7.59495 -0.191263 6.20963 0.820755C5.10658 1.62779 4.52821 2.64949 4.4916 3.85681C4.46557 4.74454 4.721 5.71298 5.27334 6.81942C5.12259 6.94594 4.99347 7.09583 4.89101 7.26329C4.45662 7.95088 4.34762 8.87735 4.59898 9.74249L4.68032 10.0185L4.96992 10.0338C5.97478 10.0755 6.97153 10.2311 7.94067 10.4979L8.48162 10.652ZM12.5318 5.08834C11.2956 5.08737 10.1049 5.551 9.19929 6.38592C8.29372 7.22085 7.74054 8.36509 7.65108 9.58835C6.88358 9.40973 6.10238 9.295 5.31564 9.24536C5.21346 8.71274 5.30665 8.16143 5.57838 7.69102C5.72806 7.45456 5.85903 7.38919 5.88587 7.38434L6.44065 7.28831L6.17465 6.79602C5.56374 5.66617 5.27984 4.71226 5.30343 3.88021C5.33272 2.91984 5.78663 2.13137 6.6912 1.46961C8.04316 0.483415 9.63754 1.07578 10.3631 1.5834L10.6959 1.81583L10.9301 1.48575C11.3849 0.846579 12.0177 0.770719 12.47 0.81914C13.4925 0.929704 14.5451 1.74561 14.973 2.75602C15.37 3.69217 15.1731 4.64609 14.4223 5.46845C13.8243 5.21711 13.1813 5.0881 12.5318 5.08915V5.08834Z" fill="#0D0628"/>
<path d="M9.33665 8.56779L10.7505 9.32304L10.3648 10.0336L8.951 9.27836L9.33665 8.56779Z" fill="#0D0628"/>
<path d="M11.4079 6.58891L12.1736 8.30725L11.4296 8.63357L10.6639 6.91523L11.4079 6.58891Z" fill="#0D0628"/>
<path d="M13.5615 6.49886L14.3503 6.69574L13.9519 8.2673L13.163 8.07042L13.5615 6.49886Z" fill="#0D0628"/>
<path d="M8.08869 8.65622L8.60035 8.02835L7.23618 6.93482L9.15432 4.78973L10.0524 6.23593L10.7446 5.81304L9.27308 3.44118L6.06236 7.03166L8.08869 8.65622Z" fill="#0D0628"/>
<path d="M5.77424 14.2389L5.91284 15.0342L3.15386 15.5075L3.01526 14.7122L5.77424 14.2389Z" fill="#0D0628"/>
<path d="M16.7419 8.47423L17.1787 10.9982L16.3734 11.1353L15.9365 8.61142L16.7419 8.47423Z" fill="#0D0628"/>
<path d="M17.6009 18.0608L17.7395 18.856L12.9542 19.6769L12.8156 18.8817L17.6009 18.0608Z" fill="#0D0628"/>
<path d="M12.9241 16.9517C13.3432 16.9519 13.7522 16.8243 14.0957 16.5861C14.4392 16.3479 14.7006 16.0107 14.8444 15.6201C14.9882 15.2296 15.0075 14.8046 14.8997 14.4028C14.7919 14.001 14.5621 13.6418 14.2416 13.374C13.921 13.1061 13.5252 12.9425 13.1078 12.9053C12.6904 12.8681 12.2715 12.9592 11.908 13.1661C11.5445 13.3731 11.2539 13.6859 11.0757 14.0622C10.8975 14.4386 10.8402 14.8601 10.9116 15.2699C10.9936 15.7405 11.2404 16.1672 11.6086 16.4749C11.9768 16.7826 12.4427 16.9515 12.9241 16.9517ZM12.9241 13.7042C13.2434 13.7037 13.5506 13.8254 13.7816 14.0442C14.0126 14.2629 14.1496 14.5617 14.1639 14.8782C14.1782 15.1947 14.0688 15.5045 13.8585 15.7429C13.6481 15.9813 13.3531 16.1299 13.035 16.1577C12.7169 16.1855 12.4003 16.0904 12.1511 15.8921C11.902 15.6939 11.7397 15.4079 11.698 15.0938C11.6563 14.7797 11.7384 14.4618 11.9273 14.2063C12.1162 13.9509 12.3972 13.7776 12.7118 13.7228C12.7843 13.7102 12.8578 13.704 12.9314 13.7042H12.9241Z" fill="#0D0628"/>
<path d="M17.8861 30.1935C17.9491 30.1933 18.0119 30.1879 18.074 30.1774C18.2157 30.1534 18.3512 30.102 18.4728 30.0261C18.5944 29.9502 18.6998 29.8513 18.7829 29.735C18.866 29.6187 18.9252 29.4873 18.9571 29.3483C18.989 29.2093 18.993 29.0654 18.9688 28.9248C18.9444 28.7846 18.8924 28.6504 18.8157 28.5301C18.7391 28.4098 18.6393 28.3056 18.5221 28.2236C18.4048 28.1415 18.2724 28.0832 18.1325 28.0519C17.9925 28.0206 17.8477 28.0169 17.7063 28.0411C17.5643 28.0647 17.4283 28.1158 17.3063 28.1916C17.1842 28.2674 17.0784 28.3664 16.995 28.4828C16.9116 28.5993 16.8521 28.7309 16.8201 28.8702C16.788 29.0095 16.784 29.1536 16.8083 29.2945C16.8525 29.5462 16.9849 29.7744 17.182 29.9389C17.3792 30.1033 17.6285 30.1935 17.8861 30.1935ZM17.8861 28.832C17.9444 28.8315 18.0013 28.8493 18.0488 28.8829C18.1093 28.9252 18.1504 28.9895 18.1631 29.0619C18.1757 29.1342 18.1589 29.2086 18.1163 29.2686C18.0737 29.3287 18.0088 29.3695 17.9359 29.382C17.8629 29.3946 17.788 29.3779 17.7275 29.3356C17.6974 29.3148 17.6719 29.2882 17.6523 29.2574C17.6328 29.2267 17.6196 29.1923 17.6136 29.1565C17.607 29.1205 17.6077 29.0836 17.6156 29.0478C17.6234 29.0121 17.6383 28.9783 17.6594 28.9483C17.6805 28.9183 17.7074 28.8927 17.7385 28.873C17.7695 28.8534 17.8042 28.84 17.8405 28.8336C17.8557 28.8321 17.8709 28.8315 17.8861 28.832Z" fill="#0D0628"/>
<path d="M7.07671 14.0028C7.16643 14.0026 7.25596 13.9948 7.34434 13.9794C7.73524 13.9108 8.08434 13.6951 8.31886 13.3773C8.55338 13.0595 8.65521 12.6642 8.60313 12.2738C8.55105 11.8833 8.34908 11.5279 8.03932 11.2816C7.72956 11.0353 7.33592 10.9171 6.94048 10.9517C6.54503 10.9863 6.1783 11.1709 5.91675 11.4672C5.6552 11.7635 5.51901 12.1485 5.53658 12.5419C5.55414 12.9354 5.72411 13.3069 6.01105 13.5791C6.29798 13.8513 6.67973 14.0031 7.07671 14.0028ZM7.08159 11.7238C7.27233 11.7247 7.45532 11.7987 7.59243 11.9303C7.72953 12.0618 7.81016 12.2408 7.8175 12.4299C7.82484 12.619 7.75832 12.8036 7.63182 12.9452C7.50532 13.0868 7.3286 13.1746 7.1385 13.1901C6.9484 13.2056 6.75961 13.1477 6.61147 13.0285C6.46334 12.9093 6.3673 12.738 6.34339 12.5502C6.31948 12.3625 6.36953 12.1728 6.48312 12.0208C6.5967 11.8688 6.76505 11.7661 6.95306 11.7342C6.99553 11.7271 7.03853 11.7236 7.08159 11.7238Z" fill="#0D0628"/>
<path d="M8.88924 24.8186L9.45296 24.6798C11.227 24.2411 13.0357 23.9538 14.8592 23.8212L15.4392 23.78L15.2009 23.2538C14.9056 22.6016 14.4019 22.0641 13.7678 21.7245C13.1336 21.3849 12.4043 21.262 11.6927 21.3749C10.9811 21.4878 10.3268 21.8302 9.83106 22.3492C9.33532 22.8681 9.02575 23.5346 8.95024 24.2457L8.88924 24.8186ZM14.1442 23.0698C12.7149 23.2028 11.2959 23.4285 9.8963 23.7453C10.0471 23.337 10.3049 22.9759 10.6431 22.6994C10.9813 22.4228 11.3878 22.2407 11.8206 22.1719C12.2534 22.1031 12.6969 22.15 13.1053 22.3078C13.5137 22.4657 13.8723 22.7287 14.1442 23.0698Z" fill="#0D0628"/>
<path d="M17.8861 30.1935C17.9491 30.1933 18.0119 30.1879 18.074 30.1774C18.2157 30.1534 18.3512 30.102 18.4728 30.0261C18.5944 29.9502 18.6998 29.8513 18.7829 29.735C18.866 29.6187 18.9252 29.4873 18.9571 29.3483C18.989 29.2093 18.993 29.0654 18.9688 28.9248C18.9444 28.7846 18.8924 28.6504 18.8157 28.5301C18.7391 28.4098 18.6393 28.3056 18.5221 28.2236C18.4048 28.1415 18.2724 28.0832 18.1325 28.0519C17.9925 28.0206 17.8477 28.0169 17.7063 28.0411C17.5643 28.0647 17.4283 28.1158 17.3063 28.1916C17.1842 28.2674 17.0784 28.3664 16.995 28.4828C16.9116 28.5993 16.8521 28.7309 16.8201 28.8702C16.788 29.0095 16.784 29.1536 16.8083 29.2945C16.8525 29.5462 16.9849 29.7744 17.182 29.9389C17.3792 30.1033 17.6285 30.1935 17.8861 30.1935ZM17.8861 28.832C17.9444 28.8315 18.0013 28.8493 18.0488 28.8829C18.1093 28.9252 18.1504 28.9895 18.1631 29.0619C18.1757 29.1342 18.1589 29.2086 18.1163 29.2686C18.0737 29.3287 18.0088 29.3695 17.9359 29.382C17.8629 29.3946 17.788 29.3779 17.7275 29.3356C17.6974 29.3148 17.6719 29.2882 17.6523 29.2574C17.6328 29.2267 17.6196 29.1923 17.6136 29.1565C17.607 29.1205 17.6077 29.0836 17.6156 29.0478C17.6234 29.0121 17.6383 28.9783 17.6594 28.9483C17.6805 28.9183 17.7074 28.8927 17.7385 28.873C17.7695 28.8534 17.8042 28.84 17.8405 28.8336C17.8557 28.8321 17.8709 28.8315 17.8861 28.832Z" fill="#0D0628"/>
<path d="M8.85663 37C10.7528 36.9932 12.6454 36.8369 14.5167 36.5327C17.7363 36.0122 20.4598 35.1277 22.186 34.0414L22.4121 33.8994L22.3698 33.6371C21.5913 28.8167 20.6111 23.5419 20.6013 23.4895L20.5501 23.2159L20.2743 23.1659C20.1873 23.1497 18.1065 22.7801 14.7989 23.0166C12.929 23.152 11.0743 23.4466 9.25522 23.897C8.65652 24.0439 8.0391 24.2142 7.4225 24.4038C6.26703 24.7588 5.13122 25.1739 4.0198 25.6475L3.72533 25.7734L5.64916 36.8047L5.94933 36.8402C6.91435 36.951 7.88518 37.0043 8.85663 37ZM21.5254 33.4983C17.9308 35.6111 10.8228 36.5335 6.34711 36.0727L4.63884 26.2649C5.62964 25.8533 6.64646 25.4869 7.66491 25.1746C8.26768 24.9897 8.86883 24.8235 9.45452 24.6798C11.2289 24.2412 13.0378 23.9539 14.8616 23.8212C17.3833 23.6412 19.1965 23.8292 19.8578 23.918C20.0637 25.0519 20.8592 29.401 21.5254 33.4983ZM17.886 30.1935C17.9485 30.1933 18.0108 30.1879 18.0723 30.1774C18.214 30.1534 18.3495 30.102 18.4711 30.0261C18.5927 29.9502 18.6981 29.8513 18.7812 29.735C18.8643 29.6187 18.9235 29.4873 18.9554 29.3483C18.9873 29.2092 18.9913 29.0654 18.9671 28.9248C18.9427 28.7846 18.8907 28.6504 18.814 28.5301C18.7374 28.4098 18.6376 28.3056 18.5204 28.2236C18.4031 28.1415 18.2707 28.0832 18.1308 28.0519C17.9908 28.0206 17.846 28.0169 17.7046 28.0411C17.4348 28.0866 17.192 28.231 17.0243 28.4456C16.8566 28.6602 16.7762 28.9294 16.7991 29.2C16.8219 29.4705 16.9462 29.7228 17.1475 29.9068C17.3488 30.0907 17.6123 30.1931 17.886 30.1935ZM17.934 29.3824C17.8798 29.3916 17.824 29.3846 17.7737 29.3623C17.7235 29.3401 17.681 29.3036 17.6515 29.2575C17.6221 29.2114 17.6071 29.1576 17.6084 29.1031C17.6097 29.0485 17.6272 28.9955 17.6588 28.9508C17.6903 28.906 17.7345 28.8716 17.7858 28.8517C17.837 28.8318 17.893 28.8274 17.9468 28.8391C18.0006 28.8507 18.0497 28.8778 18.0879 28.9171C18.1262 28.9563 18.1519 29.0059 18.1618 29.0596C18.1684 29.0957 18.1678 29.1327 18.1599 29.1685C18.1521 29.2043 18.1371 29.2382 18.1159 29.2683C18.0947 29.2983 18.0677 29.3238 18.0365 29.3434C18.0053 29.363 17.9704 29.3763 17.934 29.3824Z" fill="#0D0628"/>
<path d="M9.7224 31.9536L10.2507 34.985L9.44917 35.1225L8.92083 32.0911L9.7224 31.9536Z" fill="#0D0628"/>
<path d="M14.754 25.7133L15.5955 30.5411L14.7939 30.6786L13.9525 25.8508L14.754 25.7133Z" fill="#0D0628"/>
<path d="M9.05523 29.8763C9.17955 29.8762 9.30363 29.8657 9.42617 29.8449C9.84844 29.7723 10.2395 29.5771 10.55 29.284C10.8604 28.9908 11.0763 28.613 11.1704 28.1982C11.2644 27.7834 11.2323 27.3502 11.0782 26.9534C10.9241 26.5567 10.6549 26.2142 10.3046 25.9692C9.9543 25.7243 9.53867 25.5879 9.11023 25.5772C8.6818 25.5666 8.25982 25.6823 7.89763 25.9096C7.53544 26.1368 7.24931 26.4656 7.07542 26.8542C6.90154 27.2428 6.8477 27.6738 6.92071 28.0928C7.00848 28.5916 7.27053 29.0437 7.66087 29.3699C8.05122 29.696 8.54489 29.8753 9.05523 29.8763ZM9.0593 26.3827C9.39768 26.3842 9.72325 26.5113 9.97191 26.739C10.2206 26.9666 10.3743 27.2784 10.4029 27.613C10.4315 27.9475 10.3328 28.2805 10.1263 28.5464C9.91975 28.8124 9.62038 28.992 9.28707 29.0499C8.93325 29.1106 8.56962 29.0294 8.27619 28.8241C7.98275 28.6188 7.78354 28.3062 7.72238 27.9552C7.66121 27.6042 7.74311 27.2434 7.95005 26.9523C8.15699 26.6612 8.47202 26.4635 8.82583 26.4029C8.90291 26.3894 8.98103 26.3826 9.0593 26.3827Z" fill="#0D0628"/>
<path d="M14.4264 35.3262C14.5017 35.3261 14.5768 35.3197 14.6509 35.3068C14.9792 35.2496 15.2725 35.0689 15.4697 34.8024C15.6669 34.5358 15.7528 34.2041 15.7095 33.8762C15.6662 33.5484 15.497 33.2498 15.2372 33.0427C14.9774 32.8356 14.647 32.736 14.315 32.7647C13.983 32.7933 13.6749 32.948 13.4551 33.1965C13.2352 33.4449 13.1205 33.768 13.1349 34.0983C13.1492 34.4287 13.2916 34.7408 13.5322 34.9695C13.7728 35.1983 14.0932 35.326 14.4264 35.3262ZM14.4264 33.5507C14.5195 33.5508 14.6105 33.5772 14.6889 33.627C14.7673 33.6767 14.8298 33.7476 14.8689 33.8313C14.908 33.9151 14.9222 34.0082 14.9098 34.0996C14.8974 34.1911 14.8589 34.2772 14.7988 34.3476C14.7387 34.4181 14.6596 34.4701 14.5707 34.4974C14.4818 34.5248 14.3869 34.5264 14.2972 34.502C14.2075 34.4776 14.1266 34.4283 14.0642 34.3598C14.0018 34.2914 13.9604 34.2067 13.9448 34.1157C13.9339 34.053 13.9354 33.9887 13.9495 33.9267C13.9635 33.8646 13.9898 33.8058 14.0267 33.7538C14.0637 33.7018 14.1106 33.6575 14.1648 33.6235C14.219 33.5895 14.2794 33.5664 14.3426 33.5556C14.3714 33.5512 14.4005 33.5493 14.4297 33.5499L14.4264 33.5507Z" fill="#0D0628"/>
<path d="M8.51833 20.1088C8.55403 20.1086 8.58966 20.1057 8.62489 20.0999C8.74525 20.0793 8.85673 20.0237 8.94524 19.9402C9.03375 19.8567 9.09532 19.7491 9.12214 19.6309C9.14896 19.5126 9.13983 19.3892 9.09592 19.2761C9.05201 19.163 8.97528 19.0654 8.87544 18.9956C8.7756 18.9258 8.65713 18.887 8.53503 18.884C8.41293 18.881 8.29268 18.914 8.18948 18.9788C8.08629 19.0437 8.0048 19.1374 7.95532 19.2482C7.90583 19.359 7.89058 19.4818 7.91149 19.6012C7.93665 19.7429 8.01119 19.8714 8.1221 19.9642C8.23302 20.057 8.37325 20.1082 8.51833 20.1088ZM8.71356 19.4632C8.72 19.5012 8.71497 19.5403 8.69909 19.5754C8.68321 19.6106 8.65719 19.6403 8.62432 19.6609C8.59144 19.6814 8.55318 19.6918 8.51434 19.6908C8.4755 19.6898 8.43783 19.6775 8.40607 19.6553C8.3743 19.6329 8.34993 19.6017 8.33606 19.5655C8.32218 19.5294 8.31943 19.49 8.32814 19.4523C8.33685 19.4147 8.35663 19.3804 8.38499 19.3539C8.41334 19.3274 8.44899 19.3098 8.48742 19.3034C8.51294 19.299 8.53909 19.2997 8.56436 19.3054C8.58962 19.3111 8.61351 19.3216 8.63465 19.3365C8.67727 19.3663 8.70646 19.4115 8.716 19.4624L8.71356 19.4632Z" fill="#0D0628"/>
<path d="M19.2513 25.1729L19.6328 27.3622L18.8312 27.4997L18.4497 25.3105L19.2513 25.1729Z" fill="#0D0628"/>
</g>
<defs>
<clipPath id="clip0">
<rect width="22" height="37" fill="white" transform="matrix(-1 0 0 1 22.5 0)"/>
</clipPath>
</defs>
</svg>
