<svg width="13" height="20" viewBox="0 0 13 20" fill="none" xmlns="http://www.w3.org/2000/svg">
<mask id="path-1-inside-1" fill="white">
<path fill-rule="evenodd" clip-rule="evenodd" d="M6.5 20C6.5 20 12.5 11.5069 12.5 5.75343C12.5 2.5759 9.81371 0 6.5 0C3.18629 0 0.5 2.5759 0.5 5.75343C0.5 11.5069 6.5 20 6.5 20ZM6.5 10.5C8.98528 10.5 11 8.48528 11 6C11 3.51472 8.98528 1.5 6.5 1.5C4.01472 1.5 2 3.51472 2 6C2 8.48528 4.01472 10.5 6.5 10.5Z"/>
</mask>
<path d="M6.5 20L5.27488 20.8655L6.5 22.5997L7.72512 20.8655L6.5 20ZM11 5.75343C11 8.22917 9.66724 11.5034 8.17339 14.3342C7.4467 15.7112 6.71824 16.9172 6.1711 17.7792C5.89798 18.2094 5.67118 18.5522 5.51388 18.7856C5.43525 18.9023 5.37408 18.9915 5.33325 19.0506C5.31285 19.0802 5.29753 19.1021 5.28768 19.1162C5.28275 19.1233 5.27919 19.1284 5.27705 19.1314C5.27597 19.133 5.27525 19.134 5.27489 19.1345C5.2747 19.1348 5.27461 19.1349 5.27461 19.1349C5.27461 19.1349 5.27468 19.1348 5.27468 19.1348C5.27477 19.1347 5.27488 19.1345 6.5 20C7.72512 20.8655 7.72528 20.8653 7.72546 20.865C7.72555 20.8649 7.72576 20.8646 7.72594 20.8643C7.7263 20.8638 7.72676 20.8632 7.7273 20.8624C7.72839 20.8609 7.72984 20.8588 7.73165 20.8562C7.73527 20.8511 7.74032 20.8439 7.74674 20.8347C7.7596 20.8163 7.77797 20.7899 7.80151 20.7558C7.84858 20.6877 7.91631 20.5888 8.00175 20.462C8.17257 20.2085 8.41452 19.8428 8.7039 19.3869C9.28176 18.4766 10.0533 17.1997 10.8266 15.7343C12.3328 12.8802 14 9.0311 14 5.75343H11ZM6.5 1.5C9.04523 1.5 11 3.46303 11 5.75343H14C14 1.68877 10.5822 -1.5 6.5 -1.5V1.5ZM2 5.75343C2 3.46303 3.95477 1.5 6.5 1.5V-1.5C2.41781 -1.5 -1 1.68877 -1 5.75343H2ZM6.5 20C7.72512 19.1345 7.72524 19.1347 7.72533 19.1348C7.72532 19.1348 7.72539 19.1349 7.72539 19.1349C7.72539 19.1349 7.7253 19.1348 7.72512 19.1345C7.72475 19.134 7.72403 19.133 7.72296 19.1314C7.72081 19.1284 7.71725 19.1233 7.71232 19.1162C7.70247 19.1021 7.68715 19.0802 7.66675 19.0506C7.62593 18.9915 7.56475 18.9023 7.48613 18.7856C7.32882 18.5522 7.10202 18.2094 6.8289 17.7792C6.28176 16.9172 5.5533 15.7112 4.82661 14.3342C3.33276 11.5034 2 8.22917 2 5.75343H-1C-1 9.0311 0.667242 12.8802 2.17339 15.7343C2.9467 17.1997 3.71824 18.4766 4.2961 19.3869C4.58548 19.8428 4.82743 20.2085 4.99825 20.462C5.08369 20.5888 5.15142 20.6877 5.19849 20.7558C5.22203 20.7899 5.24041 20.8163 5.25326 20.8347C5.25968 20.8439 5.26473 20.8511 5.26835 20.8562C5.27016 20.8588 5.27161 20.8609 5.2727 20.8624C5.27324 20.8632 5.2737 20.8638 5.27406 20.8643C5.27424 20.8646 5.27445 20.8649 5.27454 20.865C5.27472 20.8653 5.27488 20.8655 6.5 20ZM9.5 6C9.5 7.65685 8.15685 9 6.5 9V12C9.81371 12 12.5 9.31371 12.5 6H9.5ZM6.5 3C8.15685 3 9.5 4.34315 9.5 6H12.5C12.5 2.68629 9.81371 0 6.5 0V3ZM3.5 6C3.5 4.34315 4.84315 3 6.5 3V0C3.18629 0 0.5 2.68629 0.5 6H3.5ZM6.5 9C4.84315 9 3.5 7.65685 3.5 6H0.5C0.5 9.31371 3.18629 12 6.5 12V9Z" fill="black" mask="url(#path-1-inside-1)"/>
</svg>
