<?xml version="1.0" standalone="no"?>
<!DOCTYPE svg PUBLIC "-//W3C//DTD SVG 20010904//EN"
 "http://www.w3.org/TR/2001/REC-SVG-20010904/DTD/svg10.dtd">
<svg version="1.0" xmlns="http://www.w3.org/2000/svg"
 width="134.000000pt" height="192.000000pt" viewBox="0 0 134.000000 192.000000"
 preserveAspectRatio="xMidYMid meet">

<g transform="translate(0.000000,192.000000) scale(0.100000,-0.100000)"
fill="#000000" stroke="none">
<path d="M250 1797 l-245 -113 0 -563 0 -564 203 -138 202 -138 0 233 0 234
50 21 50 22 0 559 c0 308 -3 560 -7 559 -5 0 -118 -51 -253 -112z m214 -44 c3
-42 6 -264 6 -493 l0 -417 -25 -11 c-14 -7 -28 -12 -30 -12 -3 0 -5 132 -5
293 l0 293 -175 118 c-96 65 -175 121 -175 125 0 7 367 178 386 180 7 1 14
-29 18 -76z m-248 -270 l144 -98 0 -296 0 -296 -147 -67 c-82 -36 -151 -66
-155 -66 -13 0 -10 920 3 920 6 0 75 -44 155 -97z m146 -1092 c-1 -3 -68 40
-147 94 -80 54 -143 101 -139 104 3 3 67 34 142 68 l137 62 5 -162 c3 -89 4
-164 2 -166z"/>
<path d="M928 1399 l-3 -231 -45 -18 -45 -18 -3 -562 c-1 -357 1 -560 7 -558
6 1 120 53 255 113 l246 110 0 562 0 563 -192 128 c-106 71 -199 132 -205 136
-10 5 -13 -45 -15 -225z m197 48 c190 -127 188 -104 17 -181 -81 -36 -150 -66
-154 -66 -5 0 -8 77 -8 171 0 133 3 169 13 163 6 -4 66 -44 132 -87z m165
-638 l0 -470 -152 103 -153 103 0 299 0 299 150 68 c83 38 151 69 153 69 1 0
2 -212 2 -471z m-360 1 l0 -299 171 -117 c93 -64 168 -118 166 -120 -7 -7
-380 -174 -382 -172 -2 2 -4 225 -6 496 -4 430 -2 494 11 502 39 25 40 21 40
-290z"/>
</g>
</svg>
