<svg width="55" height="56" viewBox="0 0 55 56" fill="none" xmlns="http://www.w3.org/2000/svg">
<path d="M27.4922 55.5C21.2114 55.4923 15.1217 53.339 10.2324 49.3969L9.61157 48.8964L9.82887 48.1205C10.9225 44.2818 13.2376 40.9041 16.4236 38.4993C19.6095 36.0944 23.4926 34.7935 27.4844 34.7935C31.4763 34.7935 35.3594 36.0944 38.5453 38.4993C41.7312 40.9041 44.0464 44.2818 45.14 48.1205L45.3573 48.8964L44.7364 49.3969C39.8513 53.3356 33.7677 55.4887 27.4922 55.5ZM12.4093 48.0312C16.7594 51.3094 22.0586 53.0824 27.5058 53.0824C32.953 53.0824 38.2521 51.3094 42.6023 48.0312C41.5325 44.8763 39.501 42.1358 36.7932 40.1949C34.0855 38.2539 30.8375 37.2101 27.5058 37.2101C24.1741 37.2101 20.9261 38.2539 18.2183 40.1949C15.5105 42.1358 13.479 44.8763 12.4093 48.0312Z" fill="#0D0628"/>
<path d="M43.324 50.5609L42.8235 48.7995C41.872 45.4689 39.8613 42.539 37.0957 40.453C34.3302 38.3671 30.9603 37.2388 27.4961 37.2388C24.032 37.2388 20.6621 38.3671 17.8965 40.453C15.131 42.539 13.1203 45.4689 12.1688 48.7995L11.6566 50.5609L10.2325 49.397C5.805 45.8254 2.59426 40.9688 1.04266 35.4964C-0.508942 30.024 -0.325031 24.2051 1.56905 18.8416C3.46313 13.4781 6.97415 8.83389 11.6183 5.54894C16.2625 2.264 21.8113 0.5 27.5 0.5C33.1887 0.5 38.7375 2.264 43.3817 5.54894C48.0258 8.83389 51.5369 13.4781 53.431 18.8416C55.325 24.2051 55.5089 30.024 53.9573 35.4964C52.4057 40.9688 49.195 45.8254 44.7675 49.397L43.324 50.5609ZM27.4922 34.797C31.1688 34.8047 34.759 35.9115 37.8015 37.9753C40.844 40.0391 43.1996 42.9655 44.5658 46.3784C48.26 42.9498 50.8355 38.4879 51.9564 33.5743C53.0773 28.6607 52.6917 23.5235 50.8498 18.8322C49.0079 14.141 45.7952 10.1134 41.6305 7.27462C37.4658 4.4358 32.5423 2.91742 27.5019 2.91742C22.4615 2.91742 17.5381 4.4358 13.3734 7.27462C9.20869 10.1134 5.99598 14.141 4.15409 18.8322C2.3122 23.5235 1.92658 28.6607 3.04751 33.5743C4.16843 38.4879 6.74388 42.9498 10.4381 46.3784C11.8034 42.9689 14.1563 40.0449 17.1948 37.9814C20.2334 35.9179 23.8191 34.809 27.4922 34.797Z" fill="#0D0628"/>
<path d="M27.4922 29.0975C25.4436 29.0983 23.4407 28.4915 21.7369 27.3539C20.0332 26.2164 18.7052 24.5991 17.9208 22.7067C17.1365 20.8144 16.931 18.7319 17.3305 16.7228C17.73 14.7137 18.7165 12.8682 20.1651 11.4197C21.6137 9.97129 23.4595 8.98495 25.4688 8.58551C27.4782 8.18607 29.5609 8.39147 31.4535 9.17572C33.3461 9.95998 34.9635 11.2879 36.1012 12.9914C37.2389 14.6949 37.8458 16.6976 37.845 18.746C37.8409 21.4901 36.7488 24.1207 34.8082 26.0611C32.8676 28.0015 30.2367 29.0934 27.4922 29.0975ZM27.4922 10.8116C25.9226 10.8109 24.388 11.2756 23.0826 12.1469C21.7771 13.0183 20.7594 14.2572 20.1582 15.707C19.557 17.1567 19.3993 18.7522 19.7051 20.2915C20.0108 21.8309 20.7663 23.245 21.8759 24.3551C22.9855 25.4651 24.3994 26.2211 25.9388 26.5276C27.4782 26.8341 29.074 26.6772 30.5242 26.0767C31.9744 25.4763 33.2139 24.4594 34.0861 23.1545C34.9582 21.8496 35.4237 20.3154 35.4237 18.746C35.4216 16.643 34.5854 14.6266 33.0986 13.1392C31.6117 11.6518 29.5955 10.8147 27.4922 10.8116Z" fill="#0D0628"/>
</svg>
