<svg width="46" height="23" viewBox="0 0 46 23" fill="none" xmlns="http://www.w3.org/2000/svg">
<path d="M38.9128 22.3229H7.08584C5.65932 22.3229 4.33203 21.7405 3.62497 20.8034L1.04793 17.3831C1.00533 17.3246 0.979523 17.2554 0.973361 17.183C0.9672 17.1106 0.980922 17.038 1.01301 16.973C1.0451 16.908 1.09431 16.8533 1.1552 16.8149C1.21609 16.7764 1.28629 16.7558 1.35804 16.7552H44.6437C44.7157 16.7552 44.7863 16.7755 44.8475 16.8138C44.9087 16.8521 44.9582 16.9069 44.9904 16.9721C45.0226 17.0373 45.0362 17.1103 45.0298 17.1829C45.0233 17.2554 44.997 17.3248 44.9538 17.3831L42.369 20.7987C41.6666 21.7358 40.3409 22.3229 38.9128 22.3229ZM2.14108 17.5369L4.24055 20.3215C4.80495 21.0671 5.895 21.538 7.08584 21.538H38.9128C40.1052 21.538 41.1952 21.0671 41.7581 20.3262L43.8591 17.5416L2.14108 17.5369Z" fill="#0D0628"/>
<path d="M25.0026 10.3101C23.8692 7.90689 21.9961 6.02797 19.7307 5.02023L20.0408 4.30132C22.4799 5.3844 24.491 7.39831 25.7035 9.97259L25.0026 10.3101Z" fill="#0D0628"/>
<path d="M26.9284 15.5513H26.1531C26.1556 14.5128 26.0296 13.4782 25.7778 12.4715L26.5221 12.2769C26.7927 13.3468 26.9292 14.4469 26.9284 15.5513Z" fill="#0D0628"/>
<path d="M5.67958 15.5513H4.9043C4.9043 8.86596 9.84441 3.42542 15.9133 3.42542C16.2868 3.42538 16.66 3.44582 17.0313 3.48664L16.9476 4.27148C16.6042 4.23254 16.2589 4.21315 15.9133 4.21341C10.2724 4.21027 5.67958 9.29448 5.67958 15.5513Z" fill="#0D0628"/>
<path d="M19.7213 5.02023C18.8408 4.62917 17.9064 4.37668 16.9504 4.27148L17.0342 3.48664C18.0714 3.60184 19.0853 3.87656 20.0407 4.30131L19.7213 5.02023Z" fill="#0D0628"/>
<path d="M25.778 12.4715C25.5891 11.7274 25.3295 11.0035 25.0027 10.3101L25.702 9.97259C26.0485 10.712 26.3232 11.4837 26.5222 12.2769L25.778 12.4715Z" fill="#0D0628"/>
<path d="M8.04091 15.5513H7.26562C7.26562 10.3038 11.142 6.03268 15.9162 6.03268C16.1256 6.03268 16.3411 6.04209 16.5566 6.05936L16.4946 6.8442C16.3008 6.82851 16.1054 6.82066 15.9162 6.82066C11.5731 6.81752 8.04091 10.7355 8.04091 15.5513Z" fill="#0D0628"/>
<path d="M23.542 13.36C22.6969 9.73243 19.864 7.11262 16.4946 6.84106L16.5567 6.05622C20.2625 6.35446 23.3792 9.216 24.2971 13.1779L23.542 13.36Z" fill="#0D0628"/>
<path d="M24.5685 15.5513H23.7932C23.7945 14.8113 23.7102 14.0738 23.542 13.3537L24.2971 13.1748C24.4783 13.9536 24.5693 14.7511 24.5685 15.5513Z" fill="#0D0628"/>
<path d="M22.2117 15.5513H21.4364C21.4364 12.1733 18.9555 9.42948 15.921 9.42948C12.8866 9.42948 10.4057 12.178 10.4057 15.5513H9.63037C9.63037 11.7401 12.4524 8.64464 15.921 8.64464C19.3896 8.64464 22.2117 11.7401 22.2117 15.5513Z" fill="#0D0628"/>
<path d="M41.096 15.5513H40.3207C40.3207 11.5266 37.7669 8.04345 34.1184 7.07495L34.306 6.3215C38.3034 7.37319 41.096 11.1687 41.096 15.5513Z" fill="#0D0628"/>
<path d="M34.1076 7.07966C33.1877 6.82844 32.2288 6.75705 31.2825 6.86932L31.1941 6.08448C32.237 5.9639 33.293 6.04487 34.3061 6.32307L34.1076 7.07966Z" fill="#0D0628"/>
<path d="M25.6632 10.3666L25.0291 9.92236C26.5176 7.77345 28.7644 6.37957 31.1941 6.09546L31.2825 6.8803C29.0729 7.12674 27.0184 8.40133 25.6632 10.3666Z" fill="#0D0628"/>
<path d="M39.3253 15.5512H38.55C38.55 11.8138 35.6784 8.77334 32.1493 8.77334C29.7754 8.77334 27.6077 10.1547 26.4928 12.3836L25.8013 12.0273C27.0417 9.53935 29.4808 7.99321 32.1493 7.99321C36.1063 7.9885 39.3253 11.3822 39.3253 15.5512Z" fill="#0D0628"/>
<path d="M29.0728 6.7563C28.9069 4.97314 27.4028 3.62792 25.5716 3.62792C24.8756 3.62 24.193 3.8223 23.6111 4.20898C23.0291 4.59566 22.5743 5.14916 22.3046 5.79879L21.5913 5.50055C21.9183 4.70698 22.4717 4.03021 23.1808 3.5568C23.8898 3.0834 24.7223 2.83489 25.5716 2.84308C27.8044 2.84308 29.6419 4.49439 29.845 6.68253L29.0728 6.7563Z" fill="#0D0628"/>
<path d="M27.4604 7.70753C27.4124 7.25571 27.1988 6.83852 26.8618 6.53833C26.5247 6.23814 26.0888 6.07676 25.64 6.08604C25.2772 6.08059 24.921 6.18494 24.6171 6.38574C24.3132 6.58654 24.0755 6.87463 23.9344 7.21308L23.218 6.91484C23.4166 6.4332 23.7525 6.02242 24.1828 5.73498C24.6131 5.44755 25.1183 5.29653 25.6338 5.3012C26.2759 5.29113 26.8983 5.52511 27.3783 5.95695C27.8583 6.38879 28.1609 6.98709 28.2264 7.63376L27.4604 7.70753Z" fill="#0D0628"/>
<path d="M29.0728 6.7563C28.9069 4.97314 27.4028 3.62792 25.5716 3.62792C24.8756 3.62 24.193 3.8223 23.6111 4.20898C23.0291 4.59566 22.5743 5.14916 22.3046 5.79879L21.5913 5.50055C21.9183 4.70698 22.4717 4.03021 23.1808 3.5568C23.8898 3.0834 24.7223 2.83489 25.5716 2.84308C27.8044 2.84308 29.6419 4.49439 29.845 6.68253L29.0728 6.7563Z" fill="#0D0628"/>
<path d="M30.853 6.51614C30.5925 3.71425 28.2326 1.60302 25.3609 1.60302C24.27 1.59199 23.2007 1.91027 22.2893 2.51724C21.3779 3.12421 20.6659 3.99234 20.244 5.01081L19.5261 4.71257C20.0064 3.55003 20.818 2.55871 21.8572 1.86509C22.8964 1.17146 24.1162 0.806991 25.3609 0.818174C28.6342 0.818174 31.3275 3.23549 31.6252 6.44236L30.853 6.51614Z" fill="#0D0628"/>
<path d="M37.5623 15.5513H36.787C36.787 12.8922 34.7092 10.7292 32.157 10.7292C29.6048 10.7292 27.527 12.8922 27.527 15.5513H26.7517C26.7517 12.4605 29.1768 9.94434 32.157 9.94434C35.1372 9.94434 37.5623 12.4605 37.5623 15.5513Z" fill="#0D0628"/>
<path d="M20.8579 19.2384H5.90424C5.80143 19.2384 5.70284 19.1971 5.63014 19.1235C5.55744 19.0499 5.5166 18.9501 5.5166 18.846C5.5166 18.742 5.55744 18.6421 5.63014 18.5685C5.70284 18.4949 5.80143 18.4536 5.90424 18.4536H20.8579C20.9607 18.4536 21.0593 18.4949 21.132 18.5685C21.2047 18.6421 21.2456 18.742 21.2456 18.846C21.2456 18.9501 21.2047 19.0499 21.132 19.1235C21.0593 19.1971 20.9607 19.2384 20.8579 19.2384Z" fill="#0D0628"/>
<path d="M34.4116 20.7249C34.3088 20.7249 34.2102 20.6836 34.1375 20.61C34.0648 20.5364 34.0239 20.4366 34.0239 20.3325C34.0239 20.2284 34.0648 20.1286 34.1375 20.055C34.2102 19.9814 34.3088 19.9401 34.4116 19.9401C39.8386 19.9401 39.8386 19.9401 40.7689 18.9449C40.8992 18.8036 41.048 18.6435 41.2341 18.4615C41.3079 18.3946 41.4043 18.359 41.5033 18.3618C41.6023 18.3646 41.6965 18.4056 41.7665 18.4765C41.8366 18.5474 41.8772 18.6428 41.8799 18.743C41.8827 18.8433 41.8475 18.9408 41.7814 19.0156C41.6109 19.1882 41.4713 19.3436 41.3395 19.4865C40.1766 20.7249 40.0681 20.7249 34.4116 20.7249Z" fill="#0D0628"/>
</svg>
