<svg width="15" height="14" viewBox="0 0 15 14" fill="none" xmlns="http://www.w3.org/2000/svg">
<g clip-path="url(#clip0)">
<path d="M12.2186 13.9999C12.1168 13.9998 12.0154 13.9878 11.9164 13.9643C11.3062 13.8183 8.1002 12.9426 4.85122 10.0299L4.72519 9.90529C2.30354 7.24995 1.10209 4.20302 0.771282 2.81952C0.714098 2.57827 0.726306 2.32578 0.806497 2.09117C0.886689 1.85657 1.03159 1.64943 1.22449 1.49366L2.72587 0.287996C2.87204 0.170582 3.04174 0.0859531 3.22347 0.039842C3.40521 -0.00626922 3.59473 -0.0127855 3.7792 0.0207346C3.96367 0.0542547 4.13878 0.127028 4.29268 0.234125C4.44657 0.341223 4.57564 0.480142 4.67116 0.641474L6.08748 3.03453C6.22451 3.26415 6.30042 3.52505 6.30798 3.79234C6.31553 4.05963 6.25448 4.32439 6.13064 4.56138L5.71099 5.37136C6.07031 6.18401 7.20545 7.34494 7.36959 7.49458L7.4159 7.54184C7.55075 7.69038 8.56821 8.68466 9.36324 9.02632L10.1747 8.60605C10.4116 8.48209 10.6763 8.42085 10.9435 8.42816C11.2108 8.43547 11.4718 8.51108 11.7016 8.6478L14.0944 10.0645C14.2556 10.1601 14.3945 10.2891 14.5015 10.4429C14.6086 10.5967 14.6813 10.7718 14.7149 10.9562C14.7484 11.1405 14.7419 11.33 14.6959 11.5116C14.6499 11.6933 14.5653 11.863 14.448 12.0091L13.2422 13.5113C13.1187 13.6638 12.9628 13.7869 12.7857 13.8714C12.6086 13.9559 12.4148 13.9998 12.2186 13.9999ZM12.1441 13.0143C12.2054 13.0287 12.2695 13.0256 12.3291 13.0052C12.3887 12.9849 12.4414 12.9483 12.4812 12.8994L13.6862 11.3978C13.7159 11.3607 13.7372 11.3177 13.7488 11.2717C13.7605 11.2257 13.7621 11.1777 13.7536 11.131C13.7451 11.0843 13.7267 11.0399 13.6996 11.0009C13.6725 10.9619 13.6374 10.9292 13.5966 10.9049L11.2043 9.48864C11.1168 9.43678 11.0176 9.40811 10.916 9.40535C10.8144 9.40259 10.7137 9.42584 10.6236 9.47289L9.44327 10.0847L9.25187 10.0253C8.07799 9.66129 6.68971 8.19429 6.67695 8.17996C6.34504 7.85688 5.03174 6.52126 4.7107 5.48367L4.65147 5.2926L5.2633 4.11119C5.31048 4.02137 5.33381 3.92095 5.33105 3.81953C5.32829 3.71812 5.29954 3.61911 5.24755 3.53199L3.8306 1.13908C3.80645 1.09823 3.7738 1.06305 3.73485 1.03593C3.6959 1.00881 3.65158 0.990394 3.60488 0.981922C3.55818 0.97345 3.51021 0.975124 3.46422 0.98683C3.41823 0.998537 3.37529 1.02 3.33833 1.04977L1.83616 2.25575C1.7872 2.29532 1.75046 2.34797 1.73022 2.40758C1.70998 2.4672 1.70706 2.53132 1.7218 2.59253C2.03086 3.88562 3.16033 6.73864 5.43123 9.22921L5.52401 9.32246C8.57719 12.0581 11.574 12.8779 12.1441 13.0143Z" fill="black"/>
</g>
<defs>
<clipPath id="clip0">
<rect width="14" height="14" fill="white" transform="translate(0.736328)"/>
</clipPath>
</defs>
</svg>
