<svg width="54" height="33" viewBox="0 0 54 33" fill="none" xmlns="http://www.w3.org/2000/svg">
<g clip-path="url(#clip0)">
<path d="M22.346 28.5187C22.2667 28.5187 22.1878 28.506 22.1126 28.4811C21.5333 28.2873 21.4313 27.5406 21.2894 26.5174C21.2322 26.0979 21.1722 25.6644 21.0778 25.2515C21.05 25.1298 21.0724 25.0021 21.1399 24.8967C21.2074 24.7912 21.3147 24.7165 21.438 24.6891C21.5613 24.6617 21.6906 24.6837 21.7975 24.7504C21.9043 24.817 21.98 24.9229 22.0078 25.0446C22.1107 25.497 22.1764 25.9719 22.2336 26.3913C22.2761 26.7627 22.3432 27.1309 22.4346 27.4936C22.4575 27.4748 22.4823 27.4512 22.5118 27.424C22.6071 27.2415 22.5747 26.5117 22.5528 25.9766C22.5385 25.6521 22.5251 25.3183 22.5232 24.9694C22.5229 24.9076 22.5349 24.8464 22.5586 24.7892C22.5822 24.7321 22.6171 24.6801 22.6611 24.6362C22.7051 24.5923 22.7575 24.5574 22.8151 24.5335C22.8728 24.5096 22.9347 24.4971 22.9973 24.4968C23.0598 24.4965 23.1218 24.5083 23.1798 24.5317C23.2377 24.555 23.2904 24.5894 23.3348 24.6328C23.3793 24.6763 23.4146 24.728 23.4389 24.7849C23.4631 24.8418 23.4757 24.9029 23.476 24.9647C23.476 25.2948 23.4913 25.623 23.5046 25.938C23.5466 26.9622 23.578 27.7014 23.1978 28.0767C23.073 28.1952 22.7462 28.5187 22.346 28.5187Z" fill="black"/>
<path d="M11.8175 32.9991C11.5644 33.0097 11.3155 32.9321 11.1144 32.7799C10.7151 32.4564 10.7409 31.9401 10.7656 31.4417C10.798 30.7833 10.7904 30.3328 10.3978 30.0009C9.32022 29.0867 5.87677 29.541 3.17746 30.0817C2.7225 30.1733 2.24992 30.1221 1.82591 29.9353C1.4019 29.7485 1.04768 29.4355 0.812851 29.0402C0.578021 28.6448 0.474338 28.1868 0.516321 27.7304C0.558304 27.274 0.743849 26.842 1.04698 26.4948C10.2864 15.9108 12.0319 14.4719 18.5291 9.09995C19.5667 8.24224 20.7272 7.28203 22.0593 6.16851C22.0603 6.15181 22.0622 6.13517 22.065 6.11867C22.0823 6.01447 22.1347 5.91907 22.2136 5.84782C21.4152 3.96688 21.803 2.65023 22.2965 1.86495C23.1036 0.576507 24.5976 0 25.72 0C26.931 0 32.4258 2.01824 36.9822 3.91704C40.0445 5.19325 47.6107 8.47454 51.7231 11.374C51.8203 11.4429 51.8878 11.5454 51.9119 11.6611C51.9361 11.7768 51.9152 11.8973 51.8535 11.9985C51.7918 12.0998 51.6937 12.1743 51.5788 12.2074C51.4639 12.2405 51.3405 12.2297 51.2333 12.1772C50.533 11.8311 49.7088 12.2185 49.281 12.48C48.11 13.1938 47.1582 14.5565 47.1582 15.5177C47.1583 15.6165 47.1269 15.7128 47.0684 15.793C47.0099 15.8732 46.9273 15.9332 46.8323 15.9644C46.2825 16.145 45.4641 16.4676 44.4274 16.8767C40.3303 18.4924 32.6993 21.5 24.8148 22.2843C23.8563 22.3784 23.4685 23.1561 23.4809 24.9647C23.4809 25.0894 23.4307 25.209 23.3413 25.2972C23.252 25.3854 23.1308 25.4349 23.0045 25.4349C22.8781 25.4349 22.7569 25.3854 22.6676 25.2972C22.5782 25.209 22.5281 25.0894 22.5281 24.9647C22.5233 24.0345 22.5119 21.5649 24.7195 21.3439C32.4706 20.5727 40.0188 17.5971 44.0739 15.9983C44.9543 15.6512 45.6794 15.3653 46.2301 15.1707C46.3997 13.9405 47.4392 12.4931 48.7798 11.6749C49.0923 11.4828 49.429 11.332 49.7812 11.2263C46.7656 9.35857 42.0921 7.0676 36.6115 4.78321C31.0957 2.48471 26.527 0.940466 25.72 0.940466C24.8891 0.940466 23.7191 1.38437 23.1074 2.35963C22.5309 3.2794 22.5843 4.48414 23.2598 5.84688C29.1396 6.96791 38.2456 10.6263 42.7838 13.3132H42.7886C42.897 13.3773 42.9752 13.4813 43.0059 13.6023C43.0366 13.7233 43.0174 13.8514 42.9525 13.9584C42.8875 14.0654 42.7822 14.1426 42.6596 14.1729C42.537 14.2032 42.4072 14.1843 42.2988 14.1202C37.7034 11.3994 27.2721 7.58486 22.8615 6.73186C21.4495 7.91308 20.2289 8.92314 19.1456 9.82034C12.6989 15.15 10.9657 16.5823 1.77683 27.1099C1.60342 27.3085 1.49731 27.5557 1.47336 27.8168C1.44941 28.0779 1.50882 28.3399 1.64328 28.5661C1.77773 28.7922 1.98049 28.9711 2.22314 29.0778C2.46579 29.1845 2.73618 29.2136 2.99642 29.161C8.71328 28.0155 10.3159 28.6851 11.0277 29.288C11.8023 29.9463 11.7566 30.8736 11.7261 31.4877C11.7165 31.6758 11.7032 31.9504 11.7356 32.052C11.7832 32.0614 11.9309 32.0746 12.2701 31.9909C13.2182 31.7577 13.2906 31.3326 13.4344 30.4984C13.5688 29.714 13.7536 28.6381 14.8694 27.5829C16.0404 26.475 18.0375 25.5666 20.9674 24.8104C20.8035 24.3045 20.591 23.9847 20.3233 23.838C20.0555 23.6913 19.683 23.7007 19.2123 23.8624C13.7089 25.7641 8.64563 27.0121 5.92536 27.6826C4.9554 27.9215 4.25509 28.0945 3.96067 28.1914C3.84076 28.2308 3.70991 28.2216 3.59689 28.1658C3.48387 28.1099 3.39794 28.0121 3.35802 27.8937C3.31809 27.7754 3.32743 27.6462 3.38398 27.5347C3.44054 27.4231 3.53967 27.3383 3.65958 27.2989C3.9883 27.1907 4.6667 27.0233 5.69383 26.7704C8.3998 26.1036 13.4364 24.8622 18.8979 22.9756C19.6353 22.7207 20.2699 22.7339 20.7844 23.0151C21.5705 23.4449 21.8649 24.3797 22.0173 25.0455C22.0412 25.1607 22.0204 25.2805 21.9592 25.3813H21.9535C21.9281 25.4237 21.896 25.4619 21.8582 25.4941H21.8516C21.7991 25.5379 21.7377 25.57 21.6715 25.5882H21.6639C14.9561 27.2284 14.6178 29.1996 14.3711 30.6385C14.2138 31.5555 14.0509 32.5034 12.4978 32.8862C12.2766 32.9512 12.0481 32.9891 11.8175 32.9991ZM21.1074 21.7041C20.3995 21.7041 19.6458 21.4859 19.3247 20.6639C18.8674 19.4959 19.6954 17.661 20.9654 17.029C22.933 16.049 24.0011 16.4779 24.4623 16.8212C25.0463 17.2557 25.3017 18.0024 25.1454 18.8178C24.9053 20.0611 23.7981 21.1247 22.3232 21.5273C21.9275 21.6386 21.5188 21.6983 21.1074 21.705V21.7041ZM23.1445 17.3629C22.6681 17.3629 22.0669 17.5331 21.3942 17.8689C20.5738 18.277 19.9336 19.6097 20.2137 20.3253C20.4605 20.9564 21.4819 20.7815 22.0688 20.6216C23.4389 20.2454 24.0783 19.3209 24.2088 18.6466C24.2984 18.1848 24.1812 17.7946 23.8887 17.5764C23.6706 17.4277 23.4094 17.3531 23.1445 17.3638V17.3629ZM28.5755 17.8679C28.4494 17.8679 28.3285 17.8185 28.2392 17.7306L27.2864 16.7901C27.2365 16.741 27.1982 16.6814 27.1744 16.6159C27.1507 16.5504 27.1419 16.4804 27.1488 16.4111C27.1558 16.3418 27.1782 16.2749 27.2145 16.2153C27.2508 16.1556 27.3001 16.1046 27.3588 16.066L29.4702 14.6769C29.4072 14.6076 29.3557 14.5289 29.3178 14.4437C29.1272 14.028 29.2758 13.5032 29.7056 13.033C30.119 12.6028 30.6477 12.2972 31.2301 12.1518C31.9753 11.9646 32.7597 11.9973 33.4863 12.2458C35.431 12.8853 36.6306 13.9509 36.4781 14.8951C36.3962 15.3917 35.9503 15.9832 34.2867 15.9832H32.4982L28.788 17.8199C28.7216 17.8522 28.6486 17.8689 28.5746 17.8689L28.5755 17.8679ZM28.3707 16.5306L28.6699 16.8259L32.1743 15.0964C32.2403 15.064 32.313 15.0469 32.3868 15.0465H34.2924C35.2785 15.0465 35.531 14.8076 35.5415 14.7484C35.5777 14.5236 34.9327 13.7139 33.189 13.1421C32.0142 12.7555 31.0471 13.0979 30.5345 13.5474C30.262 13.7863 30.1896 13.9904 30.1905 14.0571C30.2818 14.0969 30.3817 14.1137 30.4812 14.106C30.5834 14.1059 30.6831 14.1383 30.7653 14.1984C30.8475 14.2585 30.9079 14.3431 30.9376 14.4397C30.9673 14.5363 30.9647 14.6398 30.9302 14.7349C30.8957 14.8299 30.8311 14.9115 30.746 14.9675L28.3707 16.5306ZM19.0179 17.2453H14.1462C14.0198 17.2453 13.8987 17.1958 13.8093 17.1076C13.72 17.0194 13.6698 16.8998 13.6698 16.7751C13.6698 16.6504 13.72 16.5308 13.8093 16.4426C13.8987 16.3544 14.0198 16.3049 14.1462 16.3049H14.2529C14.4015 16.3049 14.575 16.0528 14.8684 15.608C15.3601 14.8641 16.1014 13.7393 17.8002 12.622C17.8353 12.5988 17.8735 12.5804 17.9136 12.5674C19.057 12.1913 19.7754 12.2223 20.0498 12.6615C20.3699 13.174 19.8783 13.7712 19.3542 14.2885C18.995 14.6431 18.5815 15.165 18.6558 15.6371C18.7273 16.0933 19.2275 16.3556 19.2332 16.3575C19.3285 16.4059 19.4046 16.4845 19.449 16.5808C19.4934 16.677 19.5037 16.7852 19.4781 16.8879C19.4528 16.9899 19.3936 17.0806 19.3101 17.1455C19.2265 17.2105 19.1233 17.2459 19.017 17.2463L19.0179 17.2453ZM15.5459 16.3049H17.8907C17.8054 16.144 17.7469 15.9706 17.7173 15.7914C17.603 15.0964 17.9269 14.3656 18.6816 13.6208C18.8283 13.4769 18.9331 13.3603 19.0093 13.269C18.7608 13.3079 18.5155 13.3651 18.2757 13.4402C16.7779 14.439 16.1366 15.4124 15.6707 16.1224C15.6259 16.1845 15.5859 16.2456 15.5449 16.3058L15.5459 16.3049ZM23.8115 14.106H21.9059C21.7795 14.106 21.6583 14.0565 21.569 13.9683C21.4797 13.8801 21.4295 13.7605 21.4295 13.6358V12.0107C21.1436 11.7746 21.1551 11.5188 21.196 11.3702C21.297 11.0072 21.6581 10.758 23.1455 10.6376C24.0539 10.5681 24.9661 10.5624 25.8753 10.6207C26.9691 10.6969 27.6151 10.8436 27.6856 11.3636C27.7561 11.8837 27.1025 12.1113 26.8281 12.2025C24.5947 12.937 24.3165 13.6132 24.2936 13.6828C24.2819 13.8005 24.2257 13.9096 24.1361 13.9882C24.0466 14.0668 23.9303 14.1092 23.8105 14.107L23.8115 14.106ZM22.3823 13.1656H23.4742C23.7048 12.7499 24.3022 12.1527 25.821 11.5593C25.4446 11.532 24.9777 11.5151 24.4356 11.5216C23.7457 11.5176 23.0566 11.5704 22.3756 11.6796C22.3794 11.7045 22.3813 11.7297 22.3813 11.7549L22.3823 13.1656Z" fill="black"/>
<path d="M34.5467 31.2216C34.3438 31.2219 34.1431 31.1809 33.9569 31.1012C32.9755 30.6836 32.5601 29.32 32.1199 27.8773C31.7569 26.6885 31.3462 25.338 30.7078 25.1829C30.3048 25.0832 29.6836 25.433 28.9109 26.1957C27.4578 27.6299 26.2382 26.9161 25.1625 26.2898C24.4955 25.8995 23.8067 25.4951 22.9634 25.4434C22.8428 25.4352 22.7298 25.3821 22.6473 25.2948C22.5648 25.2075 22.5191 25.0925 22.5194 24.9731C22.5146 24.043 22.5032 21.5733 24.7109 21.3523C32.462 20.5812 40.0101 17.6055 44.0653 16.0067C44.9457 15.6597 45.6708 15.3738 46.2215 15.1791C46.3911 13.949 47.4306 12.5016 48.7712 11.6834C49.8031 11.0542 50.8255 10.931 51.6506 11.3392C51.6759 11.3519 51.7002 11.3667 51.723 11.3834C53.9078 13.001 53.8335 15.4048 52.7911 17.0694C52.268 17.9259 51.4723 18.5873 50.5282 18.9504C50.0592 19.1258 49.5597 19.2078 49.0585 19.1917C48.5572 19.1755 48.0642 19.0616 47.6078 18.8563C46.2739 19.3501 43.2592 20.1871 39.1755 21.2827C36.6029 21.974 36.5505 24.7897 36.5076 27.2735C36.4771 29.0049 36.4504 30.5002 35.4547 30.9921C35.1742 31.137 34.8633 31.2155 34.5467 31.2216ZM30.5687 24.2255C30.694 24.2253 30.8188 24.2404 30.9403 24.2706C32.1028 24.5593 32.5754 26.1083 33.0365 27.6064C33.3776 28.7246 33.7645 29.9933 34.339 30.2397C34.4067 30.2689 34.6115 30.3554 35.0355 30.1457C35.5119 29.9096 35.5395 28.498 35.5615 27.2528C35.6072 24.7183 35.6691 21.2461 38.9344 20.3705C42.6246 19.3802 46.211 18.3955 47.4582 17.9036C47.5207 17.879 47.5877 17.8677 47.6548 17.8705C47.722 17.8732 47.7878 17.89 47.8479 17.9196C49.5782 18.7745 51.2075 17.8199 51.9888 16.5719C52.7387 15.3747 52.9769 13.506 51.1961 12.1602C50.5044 11.8452 49.7012 12.2232 49.281 12.4809C48.11 13.1947 47.1581 14.5575 47.1581 15.5186C47.1582 15.6174 47.1268 15.7138 47.0683 15.794C47.0098 15.8742 46.9272 15.9341 46.8322 15.9653C46.2825 16.1459 45.464 16.4685 44.4274 16.8776C40.3303 18.4933 32.6992 21.5009 24.8147 22.2853C23.9324 22.3737 23.5332 23.0376 23.4808 24.5537C24.3383 24.7079 25.0301 25.1133 25.6513 25.4782C26.8013 26.1515 27.3473 26.412 28.2401 25.5318C29.1329 24.6515 29.8903 24.2255 30.5687 24.2255Z" fill="black"/>
<path d="M23.8095 14.107H21.9039C21.7775 14.107 21.6564 14.0575 21.567 13.9693C21.4777 13.8811 21.4275 13.7615 21.4275 13.6368V12.0107C21.1416 11.7746 21.1531 11.5188 21.194 11.3702C21.295 11.0072 21.6561 10.758 23.1435 10.6376C24.0519 10.5681 24.9641 10.5624 25.8733 10.6207C26.9671 10.6969 27.6131 10.8436 27.6836 11.3637C27.7541 11.8837 27.1005 12.1113 26.8261 12.2025C24.5937 12.9371 24.3145 13.6132 24.2916 13.6828C24.2799 13.8004 24.2238 13.9093 24.1345 13.9879C24.0452 14.0664 23.9291 14.109 23.8095 14.107ZM22.3803 13.1665H23.4732C23.7037 12.7508 24.3011 12.1536 25.8199 11.5602C25.4436 11.5329 24.9767 11.516 24.4345 11.5226C23.7446 11.5185 23.0556 11.5714 22.3746 11.6806C22.3784 11.7055 22.3803 11.7306 22.3803 11.7558V13.1665Z" fill="black"/>
<path d="M28.5735 17.8688C28.4474 17.8688 28.3265 17.8194 28.2372 17.7315L27.2844 16.7911C27.2345 16.7419 27.1962 16.6824 27.1724 16.6168C27.1487 16.5513 27.1399 16.4814 27.1468 16.4121C27.1538 16.3428 27.1762 16.2759 27.2125 16.2162C27.2488 16.1565 27.2981 16.1055 27.3568 16.0669L29.4682 14.6778C29.4052 14.6086 29.3537 14.5299 29.3158 14.4446C29.1252 14.0289 29.2739 13.5041 29.7036 13.0339C30.117 12.6037 30.6457 12.2982 31.2281 12.1527C31.9733 11.9655 32.7577 11.9982 33.4843 12.2467C35.429 12.8863 36.6286 13.9518 36.4761 14.896C36.3942 15.3926 35.9483 15.9842 34.2847 15.9842H32.4972L28.787 17.8199C28.7206 17.8522 28.6475 17.8689 28.5735 17.8688ZM28.3687 16.5315L28.6679 16.8268L31.8302 15.2656C31.8732 15.1988 31.9326 15.1438 32.0029 15.1056C32.0732 15.0675 32.1521 15.0475 32.2323 15.0475H34.2904C35.2766 15.0475 35.529 14.8086 35.5395 14.7493C35.5757 14.5246 34.9307 13.7148 33.187 13.143C32.0122 12.7565 31.0451 13.0988 30.5325 13.5483C30.26 13.7872 30.1876 13.9913 30.1885 14.0581C30.2798 14.0979 30.3797 14.1147 30.4792 14.107C30.5814 14.1069 30.6811 14.1392 30.7633 14.1993C30.8455 14.2594 30.9059 14.344 30.9356 14.4407C30.9653 14.5373 30.9627 14.6408 30.9282 14.7358C30.8937 14.8309 30.8291 14.9124 30.744 14.9685L28.3687 16.5315Z" fill="black"/>
<path d="M10.4292 23.7185C9.67933 23.7185 7.91949 23.5605 7.77276 22.0972C7.64794 20.8511 8.94185 19.3012 10.3358 19.0256C12.4977 18.5987 13.4105 19.2937 13.7659 19.7451C14.2118 20.3188 14.2566 21.105 13.885 21.8498C13.3114 22.985 11.9537 23.7185 10.4292 23.7185ZM11.5926 19.8325C11.2336 19.8365 10.8758 19.8752 10.5245 19.9482C9.61835 20.126 8.64172 21.2432 8.71413 22.005C8.74367 22.2937 8.99997 22.7781 10.4225 22.7781C11.8451 22.7781 12.7093 22.0539 13.0199 21.4342C13.2304 21.0119 13.2238 20.6056 12.9999 20.3188C12.754 19.9981 12.2605 19.8325 11.5926 19.8325Z" fill="black"/>
</g>
<defs>
<clipPath id="clip0">
<rect width="53" height="33" fill="white" transform="translate(0.5)"/>
</clipPath>
</defs>
</svg>
