<svg width="56" height="56" viewBox="0 0 56 56" fill="none" xmlns="http://www.w3.org/2000/svg">
<path d="M26.1924 26.1922H5.59094V5.59082H26.1924V26.1922ZM7.56258 24.2167H24.2207V7.56246H7.56258V24.2167Z" fill="#0D0628"/>
<path d="M20.6014 20.6013H11.1779V11.1777H20.6014V20.6013ZM13.1495 18.6257H18.6298V13.1494H13.1495V18.6257Z" fill="#0D0628"/>
<path d="M50.4131 26.1922H34.5215V24.2206H48.4415V7.56246H31.7794V19.6175H29.8077V5.59082H50.4131V26.1922Z" fill="#0D0628"/>
<path d="M44.8221 20.6013H35.3986V11.1777H44.8221V20.6013ZM37.3702 18.6257H42.8505V13.1494H37.3702V18.6257Z" fill="#0D0628"/>
<path d="M26.1924 50.413H5.59094V29.8076H17.7527V31.7793H7.56258V48.4414H24.2207V31.7793H23.3436V29.8076H26.1924V50.413Z" fill="#0D0628"/>
<path d="M20.6014 44.8222H11.1779V35.3987H20.6014V44.8222ZM13.1495 42.8467H18.6298V37.3703H13.1495V42.8467Z" fill="#0D0628"/>
<path d="M44.8221 39.2352H37.2635V34.5215H39.2352V37.2636H42.8505V33.5337H45.6993V35.5053H44.8221V39.2352Z" fill="#0D0628"/>
<path d="M33.6443 50.413H29.8077V29.8076H49.4253V31.7793H31.7794V33.5336H38.2474V35.5052H33.6443V50.413Z" fill="#0D0628"/>
<path d="M43.8383 48.5481H37.2635V41.9734H39.2352V46.5765H43.8383V48.5481Z" fill="#0D0628"/>
<path d="M50.413 34.5215H48.4414V45.6994H50.413V34.5215Z" fill="#0D0628"/>
<path d="M31.7794 28.9304H29.8077V20.4946H32.6565V22.4663H31.7794V28.9304Z" fill="#0D0628"/>
<path d="M1.97164 14.0267H0V0H14.0267V1.97164H1.97164V14.0267Z" fill="#0D0628"/>
<path d="M56.0001 14.0267H54.0284V1.97164H41.9734V0H56.0001V14.0267Z" fill="#0D0628"/>
<path d="M56.0001 56.0001H41.9734V54.0284H54.0284V41.9734H56.0001V56.0001Z" fill="#0D0628"/>
<path d="M12.1657 56.0001H0V41.9734H1.97164V54.0284H12.1657V56.0001Z" fill="#0D0628"/>
</svg>
