<svg width="18" height="18" viewBox="0 0 18 18" fill="none" xmlns="http://www.w3.org/2000/svg">
<path d="M9.02053 18C7.23875 18.004 5.49586 17.4791 4.01268 16.4918C2.52949 15.5044 1.37275 14.099 0.689021 12.4536C0.00528671 10.8083 -0.174675 8.99696 0.171937 7.24922C0.518549 5.50148 1.37613 3.89595 2.63604 2.63604C3.89595 1.37613 5.50148 0.518549 7.24922 0.171937C8.99696 -0.174675 10.8083 0.00528671 12.4536 0.689021C14.099 1.37275 15.5044 2.52949 16.4918 4.01268C17.4791 5.49586 18.004 7.23875 18 9.02053C17.9945 11.4004 17.0468 13.6812 15.364 15.364C13.6812 17.0468 11.4004 17.9945 9.02053 18ZM9.02053 1.56162C7.54443 1.55756 6.10031 1.99156 4.871 2.80867C3.64169 3.62579 2.68247 4.78929 2.11477 6.15186C1.54707 7.51443 1.39642 9.01481 1.6819 10.463C1.96738 11.9113 2.67614 13.2423 3.71847 14.2875C4.76079 15.3327 6.0898 16.0451 7.53725 16.3346C8.98469 16.624 10.4855 16.4775 11.8496 15.9136C13.2137 15.3497 14.3799 14.3937 15.2004 13.1666C16.0209 11.9395 16.4589 10.4966 16.4589 9.02053C16.4535 7.04751 15.6687 5.15655 14.2755 3.75949C12.8823 2.36243 10.9935 1.57246 9.02053 1.56162Z" fill="black" fill-opacity="0.5"/>
<path d="M9.02075 13.5001C8.12899 13.5041 7.25614 13.2432 6.51298 12.7503C5.76982 12.2574 5.18986 11.5548 4.84672 10.7317C4.50358 9.90856 4.41274 9.00207 4.58572 8.12724C4.75869 7.25242 5.18769 6.44871 5.81827 5.81814C6.44884 5.18757 7.25254 4.75857 8.12737 4.58559C9.00219 4.41262 9.90869 4.50346 10.7318 4.8466C11.5549 5.18974 12.2575 5.7697 12.7504 6.51286C13.2433 7.25602 13.5043 8.12887 13.5002 9.02063C13.4948 10.207 13.0211 11.3432 12.1822 12.1821C11.3433 13.021 10.2071 13.4947 9.02075 13.5001ZM9.02075 6.06172C8.43467 6.05765 7.86059 6.22772 7.37131 6.55037C6.88202 6.87301 6.49958 7.33369 6.27247 7.87399C6.04536 8.41429 5.98383 9.00986 6.09567 9.58518C6.20751 10.1605 6.48768 10.6896 6.90066 11.1055C7.31364 11.5214 7.84082 11.8052 8.41535 11.9211C8.98987 12.0369 9.58586 11.9795 10.1277 11.7562C10.6696 11.5329 11.1329 11.1536 11.459 10.6666C11.785 10.1796 11.9591 9.60671 11.9591 9.02063C11.9538 8.24106 11.6432 7.49462 11.0938 6.94145C10.5445 6.38829 9.80026 6.07246 9.02075 6.06172Z" fill="black" fill-opacity="0.5"/>
</svg>
