<svg width="36" height="22" viewBox="0 0 36 22" fill="none" xmlns="http://www.w3.org/2000/svg">
<path d="M7.77627 21.8363C6.64739 21.8363 5.24518 20.9566 4.87455 20.7104C3.42755 20.4657 2.48399 19.9057 2.06549 19.0425C1.61764 18.1162 1.91106 17.1089 2.14734 16.5685C0.89955 16.0745 0.250949 15.5071 0.164468 14.833C0.147594 14.6261 0.177719 14.4182 0.252709 14.2239C0.327699 14.0295 0.44572 13.8536 0.598413 13.7086C0.320522 13.3928 0.176934 12.9858 0.196898 12.5707C0.254037 11.6699 1.12347 11.0574 1.16208 11.0319L1.30261 10.9343L1.47248 10.9718C3.10634 11.3381 5.75634 15.357 6.05439 15.8133L6.10226 15.8884L6.11152 15.977C6.198 16.8177 6.48833 17.3776 6.97169 17.6433C7.77163 18.0802 8.92367 17.6629 9.23562 17.5353C11.7621 14.3076 14.0785 14.2701 14.1773 14.2701H14.2422C19.5638 15.1483 33.5674 7.88077 33.708 7.81472L34.0832 7.61806L34.6793 9.01121C34.8104 9.317 34.8342 9.65621 34.7473 9.97651C34.6808 10.1826 34.6459 10.3971 34.6438 10.613C34.9079 10.8052 35.1503 11.1805 34.9959 11.9191C34.9209 12.2742 34.735 12.598 34.4636 12.8466C34.1921 13.0951 33.8485 13.2562 33.4794 13.3078L33.3358 13.3273L33.2153 13.2507C33.0697 13.1585 32.9088 13.0914 32.7397 13.0525C32.7368 13.1093 32.7404 13.1662 32.7505 13.2222C32.8509 13.8917 32.7212 14.3406 32.3644 14.5568C31.9289 14.8195 31.3545 14.5943 31.0224 14.4187L29.4581 15.5311C29.4302 15.8573 29.2716 16.1598 29.0164 16.3733C28.4682 16.8237 27.5818 16.8087 27.1447 16.7636C26.6166 17.3131 25.5201 17.2455 25.1372 17.2035L24.1009 17.6328C23.8786 18.2333 23.5048 18.6402 22.9891 18.8338C22.2679 19.0935 21.4602 18.8338 20.9815 18.6222C20.8432 18.8951 20.636 19.1296 20.3792 19.3037C19.1438 20.1684 16.7084 19.9808 15.7788 19.8697C15.6933 20.1266 15.515 20.3447 15.2769 20.4837C14.7178 20.808 13.9256 20.6443 13.4593 20.4972C12.6717 21.7627 9.73443 21.5481 8.83411 21.4445C8.64372 21.636 8.39635 21.7646 8.12682 21.8123C8.01105 21.8313 7.89364 21.8394 7.77627 21.8363ZM1.46785 11.76C1.28562 11.9281 0.990663 12.2464 0.967499 12.6187C0.952056 12.8979 1.10185 13.1787 1.41225 13.4564L1.77516 13.7791L1.36592 14.0449C1.36592 14.0449 0.882563 14.3766 0.927347 14.7429C0.9536 14.9366 1.18833 15.4455 2.80211 16.0025L3.24224 16.1526L3.00596 16.5429C3.00596 16.5549 2.29404 17.7574 2.76196 18.7182C3.07082 19.3593 3.85532 19.7826 5.07839 19.9763L5.16642 19.9898L5.239 20.0393C5.727 20.3756 7.16936 21.2118 7.96467 21.0602C8.04069 21.0515 8.11378 21.0265 8.17867 20.9871C8.24357 20.9476 8.29864 20.8946 8.33993 20.832L8.47274 20.6293L8.71828 20.6623C9.98151 20.832 12.6562 20.8755 12.8647 19.9282L12.9651 19.4779L13.399 19.6655C13.7295 19.8066 14.5279 20.0348 14.88 19.8292C14.9588 19.7826 15.0653 19.6895 15.0869 19.4088L15.1194 19.0005L15.5348 19.068C16.4042 19.2076 18.8874 19.4133 19.9267 18.6837C20.0446 18.6075 20.145 18.5084 20.2215 18.3927C20.2981 18.2769 20.3491 18.147 20.3715 18.0111L20.4641 17.4422L20.9614 17.7544C21.2456 17.9301 22.1165 18.3399 22.7281 18.1177C23.0524 18.0006 23.2809 17.7139 23.423 17.2455L23.4755 17.0759L25.0399 16.4318L25.148 16.4484C25.6715 16.5249 26.4761 16.4799 26.6228 16.1946L26.7509 15.9424L27.0366 15.9935C27.3053 16.04 28.1516 16.1061 28.5161 15.8028C28.5803 15.7468 28.6299 15.6768 28.6608 15.5985C28.6917 15.5202 28.7029 15.4358 28.6937 15.3524V15.1558L30.9946 13.5074L31.2201 13.6575C31.5135 13.8527 31.8749 13.9578 31.9537 13.9173C31.9537 13.9173 32.0556 13.8122 31.983 13.3303C31.8996 12.7778 32.1034 12.5226 32.2919 12.407C32.6795 12.1653 33.2107 12.3845 33.4933 12.5361C33.6786 12.4874 33.8463 12.3895 33.9777 12.2536C34.1091 12.1176 34.1991 11.9488 34.2377 11.766C34.2732 11.5933 34.3118 11.2886 34.162 11.2015C33.7419 10.9553 33.8531 10.3128 34.0076 9.78134C34.0523 9.62069 34.0409 9.45011 33.9751 9.29644L33.7064 8.66592C31.5043 9.78435 20.8008 15.0972 15.2105 15.0972C14.8564 15.0994 14.5027 15.0743 14.1526 15.0222C13.9164 15.0387 11.9536 15.2624 9.79156 18.0652L9.73597 18.1373L9.65103 18.1778C9.57845 18.2108 7.87665 18.996 6.59643 18.2994C5.89841 17.9181 5.47991 17.193 5.35328 16.1421C4.34177 14.6003 2.49789 12.2028 1.46785 11.76Z" fill="#0D0628"/>
<path d="M1.27634 11.5603C0.840848 10.4074 1.19912 9.08628 2.31719 7.73967C5.86905 3.44462 16.8412 -0.857936 25.1418 0.242474C29.1183 0.769409 31.8811 2.07249 33.3574 4.12168C34.2616 5.34286 34.6355 6.8608 34.3982 8.34767L33.6354 8.17503L34.0122 8.25459L33.6354 8.17503C33.8197 6.88753 33.488 5.58041 32.7088 4.52401C31.3653 2.66848 28.7848 1.47649 25.0399 0.979583C21.3907 0.503689 16.7378 1.1192 12.2701 2.65947C8.09128 4.10667 4.59347 6.18138 2.91483 8.21406C1.96663 9.3565 1.65932 10.3969 2.00833 11.3021L1.27634 11.5603Z" fill="#0D0628"/>
<path d="M31.2463 9.44115C31.0369 8.05413 30.5863 6.71187 29.9136 5.47187C28.4558 2.80567 26.2289 1.25038 23.2932 0.849552L23.3998 0.106438C26.5625 0.541798 29.0503 2.28324 30.6085 5.1461C31.3242 6.46166 31.7997 7.88798 32.0138 9.36159L31.2463 9.44115Z" fill="#0D0628"/>
<path d="M26.0206 11.8981L25.2484 11.8786C25.2324 10.1982 24.9189 8.53305 24.3218 6.95602C23.0463 3.67131 20.6804 1.79326 17.2969 1.37141L17.3942 0.620789C21.0387 1.07116 23.6871 3.1729 25.0538 6.70532C25.6855 8.36811 26.0126 10.1256 26.0206 11.8981Z" fill="#0D0628"/>
<path d="M19.2118 13.9938C19.204 13.9068 18.4721 5.18306 11.9536 2.79159L12.2254 2.089C15.1271 3.15188 17.3895 5.54186 18.7701 9.00822C19.4027 10.5911 19.8115 12.2501 19.9855 13.9398L19.2118 13.9938Z" fill="#0D0628"/>
<path d="M12.2995 15.1948C12.281 15.1093 10.4896 6.6963 5.98804 5.6139L6.17798 4.8858C11.1521 6.0868 12.9837 14.6814 13.0593 15.0462L12.2995 15.1948Z" fill="#0D0628"/>
<path d="M7.94613 18.1027C7.92297 18.0277 5.66522 10.4734 1.979 9.50213L2.17976 8.77553C6.28757 9.85642 8.59165 17.5668 8.68894 17.8941L7.94613 18.1027Z" fill="#0D0628"/>
<path d="M32.3845 11.5033L31.6262 11.3532C31.7698 10.6356 32.6331 9.59069 33.2477 9.39103L33.4917 10.1041C33.1705 10.2137 32.4771 11.0364 32.3845 11.5033Z" fill="#0D0628"/>
<path d="M28.3754 14.2295C28.2184 14.098 28.0229 14.0177 27.8164 13.9998L27.9183 13.2492C28.297 13.2864 28.6523 13.4448 28.9283 13.6996L28.3754 14.2295Z" fill="#0D0628"/>
<path d="M26.8715 14.3151L26.1812 13.9788C26.4576 13.4399 27.1386 13.1561 27.9138 13.2567L27.8119 14.0073C27.4645 13.9548 27.0259 14.0299 26.8715 14.3151Z" fill="#0D0628"/>
<path d="M28.2426 13.7161L27.489 13.5405C27.5909 13.1306 27.5817 12.8169 27.5307 12.6968L28.2442 12.4085C28.4233 12.8289 28.3198 13.4054 28.2426 13.7161Z" fill="#0D0628"/>
<path d="M13.7928 18.7183C12.7411 18.1838 12.2485 17.0669 12.3072 16.4664L13.0793 16.531C13.0562 16.7952 13.3403 17.6374 14.1603 18.0487L13.7928 18.7183Z" fill="#0D0628"/>
<path d="M4.84214 19.1071C4.11169 19.0125 3.11408 18.1688 2.97046 17.5233L3.72407 17.3641C3.79665 17.6854 4.49622 18.3054 4.94406 18.3624L4.84214 19.1071Z" fill="#0D0628"/>
<path d="M8.19793 20.0003L7.42578 19.9583C7.45976 19.3668 8.08983 18.8999 8.69982 18.6987C9.30981 18.4976 9.8812 18.5741 10.1839 18.9179L9.59859 19.4073C9.52756 19.3278 9.27584 19.3007 8.9469 19.4073C8.51759 19.5514 8.20719 19.8337 8.19793 20.0003Z" fill="#0D0628"/>
<path d="M19.5577 17.0669C18.9168 17.0669 18.6311 16.7441 18.523 16.5489C18.4207 16.3454 18.3766 16.1188 18.3953 15.893C18.4141 15.6671 18.495 15.4504 18.6296 15.2654C18.7311 15.0967 18.8789 14.9589 19.0565 14.8674C19.2341 14.776 19.4344 14.7344 19.6349 14.7475L19.5577 15.4981C19.4187 15.4876 19.306 15.6347 19.2751 15.6812C19.2203 15.7531 19.1845 15.837 19.171 15.9255C19.1576 16.014 19.1668 16.1044 19.1979 16.1887C19.2254 16.2258 19.2612 16.2563 19.3027 16.2779C19.3442 16.2995 19.3902 16.3116 19.4373 16.3133C20.7298 15.0522 21.7815 15.6707 22.183 16.0055L21.6796 16.5745C21.4803 16.4078 20.8704 15.9004 19.8805 16.9498L19.7693 17.0669H19.6056H19.5577Z" fill="#0D0628"/>
<path d="M3.18505 15.2969C2.93339 15.306 2.68475 15.2411 2.47159 15.1108L2.09169 14.8631L2.40827 14.5403C2.4458 14.4882 2.46806 14.4271 2.47268 14.3637C2.47731 14.3002 2.46412 14.2367 2.43453 14.18C2.40614 14.1166 2.35783 14.0635 2.29652 14.0285C2.2352 13.9934 2.16404 13.9781 2.09324 13.9848H2.08397L2.07471 13.2342C2.2991 13.2241 2.52136 13.2804 2.71216 13.3956C2.90296 13.5109 3.05331 13.6797 3.14335 13.8797C3.23716 14.0883 3.26563 14.3191 3.2252 14.5433C3.28543 14.5433 3.35029 14.5433 3.41515 14.5328C3.72401 14.5103 4.24752 14.4727 4.47299 14.9651L3.76725 15.2654L3.78423 15.2774C3.68175 15.2638 3.57786 15.2638 3.47538 15.2774C3.38426 15.2894 3.28697 15.2969 3.18505 15.2969Z" fill="#0D0628"/>
<path d="M13.9719 13.2012C13.8832 13.2006 13.7975 13.1704 13.7289 13.1158C13.6603 13.0612 13.6131 12.9853 13.5951 12.9009C12.4183 7.84175 9.39153 5.87963 8.14375 5.27013C8.06632 5.21841 8.01095 5.14102 7.98801 5.05246C7.96507 4.96389 7.97613 4.87024 8.01913 4.78904C8.06212 4.70784 8.1341 4.64466 8.22157 4.61135C8.30904 4.57804 8.40601 4.57688 8.4943 4.60808C9.84092 5.26412 13.104 7.37187 14.3533 12.7433C14.3759 12.8406 14.3579 12.9427 14.3032 13.0272C14.2485 13.1116 14.1615 13.1715 14.0615 13.1937C14.032 13.1995 14.0019 13.202 13.9719 13.2012Z" fill="#0D0628"/>
<path d="M14.1835 6.82391C14.119 6.8241 14.0555 6.80853 13.9989 6.77862C13.9422 6.74872 13.8942 6.70544 13.8592 6.65276C13.4268 6.00123 11.8424 4.37688 11.1057 3.98356C11.0604 3.9603 11.0203 3.92849 10.9877 3.88999C10.9552 3.8515 10.9308 3.80709 10.9161 3.75935C10.9014 3.71161 10.8966 3.6615 10.9021 3.61195C10.9075 3.5624 10.923 3.51439 10.9477 3.47073C10.9724 3.42707 11.0058 3.38863 11.046 3.35765C11.0862 3.32668 11.1323 3.30379 11.1816 3.29032C11.231 3.27685 11.2826 3.27306 11.3335 3.27919C11.3843 3.28532 11.4334 3.30124 11.4779 3.32602C12.3551 3.7854 14.0028 5.4803 14.5078 6.23992C14.563 6.32381 14.5819 6.42554 14.5602 6.52287C14.5385 6.6202 14.478 6.70523 14.392 6.75935C14.3305 6.8002 14.258 6.82264 14.1835 6.82391Z" fill="#0D0628"/>
<path d="M6.66589 12.2644C6.58798 12.2643 6.51193 12.2414 6.44771 12.1985C6.38349 12.1556 6.33411 12.0949 6.30607 12.0242C6.1609 11.6609 5.02585 10.3729 4.19657 9.68979C4.11814 9.62568 4.06911 9.53392 4.06028 9.43468C4.05144 9.33544 4.08353 9.23685 4.14947 9.1606C4.21541 9.08435 4.30981 9.0367 4.41189 9.02811C4.51398 9.01952 4.6154 9.05071 4.69383 9.11481C5.4459 9.73182 6.79561 11.158 7.02571 11.7525C7.04415 11.7985 7.05306 11.8476 7.05194 11.897C7.05082 11.9464 7.03968 11.9951 7.01916 12.0403C6.99865 12.0854 6.96916 12.1263 6.93238 12.1603C6.89561 12.1944 6.85228 12.2211 6.80487 12.2389C6.7605 12.2555 6.71342 12.2641 6.66589 12.2644Z" fill="#0D0628"/>
<path d="M33.3698 7.80422C33.2811 7.80389 33.1952 7.77386 33.1266 7.71917C33.0579 7.66449 33.0108 7.58849 32.993 7.50397C32.4093 4.83326 30.7507 3.86946 28.9933 2.85012C28.8111 2.74504 28.6304 2.63845 28.4482 2.53036C28.3653 2.47644 28.3071 2.39345 28.2858 2.29877C28.2645 2.20408 28.2816 2.10505 28.3337 2.0224C28.3858 1.93975 28.4688 1.87989 28.5652 1.85537C28.6617 1.83084 28.7642 1.84355 28.8512 1.89083C29.0304 1.99742 29.2095 2.101 29.3902 2.20609C31.2109 3.25696 33.0965 4.35887 33.7482 7.35084C33.7593 7.39945 33.7604 7.44972 33.7514 7.49875C33.7424 7.54777 33.7235 7.59458 33.6958 7.63646C33.6681 7.67833 33.6321 7.71446 33.5899 7.74274C33.5478 7.77102 33.5003 7.79089 33.4501 7.80121C33.4236 7.80515 33.3966 7.80616 33.3698 7.80422Z" fill="#0D0628"/>
<path d="M24.5705 4.68614C24.5015 4.68604 24.4338 4.66804 24.3743 4.634C24.3149 4.59996 24.2658 4.5511 24.2323 4.49248C23.2779 2.81409 21.8695 2.18807 20.0859 1.39692L19.9593 1.33987C19.9107 1.32102 19.8665 1.29276 19.8295 1.25681C19.7925 1.22086 19.7634 1.17798 19.7439 1.13076C19.7245 1.08354 19.7151 1.03297 19.7164 0.98213C19.7177 0.931285 19.7296 0.881223 19.7514 0.834985C19.7732 0.788746 19.8044 0.747296 19.8432 0.713151C19.882 0.679006 19.9275 0.652878 19.977 0.636355C20.0264 0.619832 20.0789 0.613258 20.131 0.617032C20.1832 0.620806 20.234 0.63485 20.2805 0.658311L20.4071 0.713857C22.2386 1.52903 23.8308 2.23461 24.9087 4.12918C24.9331 4.17241 24.9485 4.21991 24.954 4.26895C24.9594 4.31799 24.9548 4.36759 24.9405 4.41489C24.9261 4.4622 24.9023 4.50628 24.8703 4.54459C24.8384 4.5829 24.7989 4.61468 24.7543 4.6381C24.6983 4.66932 24.635 4.68588 24.5705 4.68614Z" fill="#0D0628"/>
<path d="M21.9296 5.32268C21.8527 5.32258 21.7776 5.30027 21.7138 5.25857C21.65 5.21686 21.6004 5.15766 21.5714 5.08849C21.0973 3.95205 19.4804 2.9297 17.0188 2.20911L16.9369 2.18509C16.8885 2.1706 16.8434 2.14697 16.8043 2.11555C16.7653 2.08413 16.7329 2.04554 16.7092 2.00198C16.6855 1.95841 16.6708 1.91073 16.666 1.86166C16.6612 1.81258 16.6665 1.76307 16.6814 1.71595C16.6963 1.66883 16.7206 1.62503 16.7529 1.58705C16.7852 1.54906 16.8249 1.51763 16.8697 1.49456C16.9145 1.47149 16.9636 1.45723 17.0141 1.45258C17.0646 1.44794 17.1155 1.45301 17.164 1.4675L17.2412 1.49001C19.9699 2.29018 21.7196 3.44163 22.2879 4.80626C22.3257 4.89696 22.3255 4.99842 22.2874 5.08899C22.2493 5.17957 22.1764 5.25211 22.0841 5.29116C22.0352 5.31145 21.9827 5.32217 21.9296 5.32268Z" fill="#0D0628"/>
</svg>
