<svg width="30" height="37" viewBox="0 0 30 37" fill="none" xmlns="http://www.w3.org/2000/svg">
<g clip-path="url(#clip0)">
<path d="M24.3213 31.259L23.6795 30.4953C20.5173 26.7347 17.7357 25.7381 14.7913 24.6818C12.6283 23.9063 10.3917 23.1045 8.00855 21.144L7.96913 21.1123L7.93742 21.0715C3.99548 15.8995 3.76668 12.0265 3.56701 8.60926C3.40248 5.80534 3.25937 3.38464 0.916487 0.865186L0.111816 0L1.25584 0.0960307C3.07941 0.250043 6.20897 0.96212 9.5262 2.50405C13.5041 4.35401 16.919 7.00754 19.3973 10.1675C23.5569 15.4782 25.2485 22.2321 24.4259 30.2434L24.3213 31.259ZM8.57328 20.4618C10.8288 22.3045 12.9831 23.0773 15.0672 23.8238C17.7931 24.8013 20.6065 25.8097 23.664 29.1454C24.2253 21.8253 22.5697 15.6385 18.7375 10.7455C16.3432 7.68972 13.0388 5.1286 9.17999 3.333C6.55946 2.1154 4.07004 1.4305 2.28931 1.13969C4.12831 3.58576 4.27056 6.00737 4.42053 8.5531C4.61334 11.8263 4.83101 15.5344 8.57328 20.4618Z" fill="#0D0628"/>
<path d="M23.5814 30.2905C20.9737 18.0756 13.3838 8.20068 1.01208 0.93766L1.42771 0.145859C14.0179 7.54296 21.7535 17.6172 24.4178 30.0948L23.5814 30.2905Z" fill="#0D0628"/>
<path d="M21.6927 23.9172C20.1065 21.1277 18.3052 19.1663 16.1851 17.9215C13.7582 16.4947 10.9877 16.0453 7.71678 16.5463L7.59424 15.6494C14.029 14.6637 18.881 17.2158 22.4271 23.4506L21.6927 23.9172Z" fill="#0D0628"/>
<path d="M19.4166 18.9661C18.8905 15.2943 20.0276 13.5911 20.0765 13.5204L20.7689 14.054C20.7689 14.054 20.5247 14.4264 20.3404 15.1946C20.169 15.9085 20.0173 17.1189 20.2624 18.8302L19.4166 18.9661Z" fill="#0D0628"/>
<path d="M13.9451 11.2936C13.4065 10.9779 12.8934 10.6158 12.4112 10.211C11.1497 9.20538 10.0606 8.33658 6.9653 8.6138L6.89331 7.70785C10.3151 7.40254 11.6425 8.4607 12.9271 9.48442C13.3737 9.86015 13.8486 10.1968 14.347 10.4909L13.9451 11.2936Z" fill="#0D0628"/>
<path d="M9.57815 6.89248L9.55158 5.98653C9.47869 5.99518 9.41162 6.03274 9.36391 6.09162C9.31627 6.14531 9.28884 6.21555 9.28678 6.28912C9.24829 6.12719 9.19845 5.96851 9.13768 5.8144C8.96416 5.34815 8.82408 4.86876 8.71863 4.38028L9.55586 4.18913C9.65251 4.63548 9.78113 5.07341 9.94063 5.49913C10.1189 6.00374 10.2371 6.33714 10.0486 6.6352C9.99606 6.71548 9.9257 6.78091 9.84368 6.82577C9.76166 6.87063 9.67049 6.89353 9.57815 6.89248Z" fill="#0D0628"/>
<path d="M27.3005 37L26.9629 36.8424C24.5283 35.7009 23.7373 33.9198 23.5017 32.6261C23.3456 31.7741 23.3749 30.8959 23.5874 30.0577L24.003 28.6643L24.4057 30.0613C24.4477 30.2035 25.4615 33.5103 28.9304 32.8652L29.8868 32.684L27.3005 37ZM24.2592 31.7201C24.2995 32.9368 24.7897 34.6835 26.9774 35.8476L28.1772 33.8545C26.4933 33.8935 25.387 33.0836 24.7288 32.3343C24.5593 32.1416 24.4029 31.9363 24.2609 31.7201H24.2592Z" fill="#0D0628"/>
</g>
<defs>
<clipPath id="clip0">
<rect width="29.7805" height="37" fill="white" transform="translate(0.109741)"/>
</clipPath>
</defs>
</svg>
